M48
;DRILL file {KiCad 4.0.4-stable} date Sun Nov  6 13:49:46 2016
;FORMAT={-:-/ absolute / inch / decimal}
FMAT,2
INCH,TZ
T1C0.008
T2C0.012
T3C0.016
T4C0.020
T5C0.031
T6C0.040
%
G90
G05
M72
T1
X2.0921Y-2.5354
X2.1209Y-2.7728
X2.137Y-2.5394
X2.1417Y-2.7693
X2.1598Y-2.6894
X2.1622Y-2.7697
X2.1638Y-2.7453
X2.1984Y-2.7622
X2.2075Y-3.578
X2.2126Y-2.7783
X2.2268Y-3.4248
X2.2346Y-2.8138
X2.2406Y-2.7638
X2.2476Y-3.3555
X2.2906Y-3.3555
X2.3016Y-3.2469
X2.302Y-3.2063
X2.3343Y-3.1909
X2.3358Y-3.3866
X2.3374Y-2.9925
X2.3398Y-3.5831
X2.3449Y-3.5571
X2.3531Y-2.2822
X2.3602Y-2.9709
X2.372Y-2.2913
X2.3728Y-2.8205
X2.3835Y-3.5591
X2.3854Y-3.0961
X2.3909Y-3.6114
X2.4154Y-2.2185
X2.4181Y-3.524
X2.4197Y-2.276
X2.4197Y-3.0531
X2.4201Y-3.0909
X2.4201Y-3.1972
X2.4213Y-3.4067
X2.4217Y-3.3236
X2.4224Y-3.5602
X2.439Y-2.2913
X2.4409Y-3.6122
X2.4559Y-3.1961
X2.4566Y-2.2579
X2.4583Y-3.0362
X2.4594Y-3.2457
X2.461Y-3.0925
X2.461Y-3.5232
X2.4622Y-3.0646
X2.4626Y-3.3551
X2.4803Y-3.6114
X2.4882Y-3.2079
X2.498Y-2.2913
X2.498Y-3.1567
X2.5004Y-3.4862
X2.5055Y-3.2457
X2.5059Y-3.0106
X2.5075Y-2.7992
X2.5173Y-3.6102
X2.5252Y-3.0886
X2.528Y-3.2858
X2.535Y-3.2067
X2.535Y-3.2417
X2.5362Y-3.4831
X2.5374Y-3.5618
X2.5382Y-3.3642
X2.5386Y-3.3283
X2.539Y-3.0496
X2.5406Y-3.1661
X2.5484Y-3.0909
X2.5634Y-3.0102
X2.5701Y-3.2106
X2.5752Y-3.2839
X2.5791Y-3.4071
X2.5795Y-3.3701
X2.5839Y-3.05
X2.5839Y-3.3252
X2.5843Y-2.4764
X2.5854Y-2.5071
X2.5866Y-2.5531
X2.5878Y-3.1669
X2.6067Y-3.2091
X2.6071Y-2.4909
X2.6102Y-2.5394
X2.613Y-3.2516
X2.6138Y-2.3902
X2.6165Y-3.5232
X2.6169Y-3.0937
X2.6181Y-3.4035
X2.6208Y-3.3634
X2.6213Y-3.1677
X2.6539Y-3.015
X2.6551Y-3.2433
X2.6571Y-3.0528
X2.6575Y-3.2803
X2.6575Y-3.2807
X2.6587Y-3.4028
X2.6591Y-3.3256
X2.661Y-3.5618
X2.665Y-3.2024
X2.6772Y-3.3673
X2.6925Y-3.0524
X2.6925Y-3.124
X2.6961Y-3.8839
X2.6972Y-3.2551
X2.7Y-3.4528
X2.702Y-3.8051
X2.7047Y-3.1681
X2.7051Y-3.0866
X2.7055Y-2.8957
X2.7106Y-3.9587
X2.7268Y-2.8941
X2.7291Y-3.7791
X2.7295Y-3.1276
X2.7299Y-2.9591
X2.7311Y-3.5169
X2.7343Y-3.5943
X2.735Y-3.1819
X2.7354Y-3.2063
X2.7354Y-3.5634
X2.7382Y-3.0937
X2.7413Y-2.5335
X2.7425Y-3.2453
X2.7496Y-2.4268
X2.75Y-3.789
X2.7528Y-3.8567
X2.7559Y-3.6012
X2.7567Y-2.9161
X2.7583Y-3.6461
X2.7591Y-2.8909
X2.7665Y-4.0244
X2.7677Y-3.5567
X2.7697Y-3.5213
X2.7697Y-3.7972
X2.7713Y-3.8441
X2.7736Y-3.05
X2.7744Y-3.4417
X2.7748Y-3.0921
X2.7752Y-3.1323
X2.776Y-3.3295
X2.776Y-4.0012
X2.7768Y-3.4854
X2.7783Y-4.0705
X2.7815Y-3.8819
X2.7815Y-4.2122
X2.7827Y-4.1783
X2.7887Y-3.5616
X2.8004Y-3.0921
X2.8016Y-3.5217
X2.8051Y-2.8445
X2.8051Y-2.9528
X2.8075Y-3.3205
X2.8075Y-3.5976
X2.8098Y-3.4784
X2.811Y-3.4004
X2.8142Y-4.2114
X2.815Y-4.0252
X2.8154Y-3.172
X2.8154Y-4.1787
X2.8177Y-3.9961
X2.8193Y-3.9323
X2.8201Y-3.363
X2.8201Y-4.1217
X2.822Y-3.7933
X2.8224Y-3.2855
X2.8287Y-3.8138
X2.8307Y-3.8602
X2.8445Y-3.248
X2.8445Y-3.9606
X2.8449Y-3.9921
X2.8469Y-3.3197
X2.8469Y-4.1819
X2.8469Y-4.2114
X2.848Y-3.5988
X2.8488Y-3.2815
X2.8492Y-3.7638
X2.8492Y-4.1449
X2.8508Y-3.5618
X2.8528Y-3.1303
X2.8528Y-3.4409
X2.8531Y-3.0504
X2.8535Y-3.0134
X2.8535Y-3.1724
X2.8551Y-3.3638
X2.8567Y-3.4024
X2.8571Y-3.4858
X2.8606Y-3.7823
X2.8764Y-4.0232
X2.878Y-4.0555
X2.8783Y-4.1185
X2.8783Y-4.1803
X2.8806Y-3.7812
X2.8843Y-3.2858
X2.8874Y-3.3591
X2.8882Y-3.4433
X2.8894Y-3.0953
X2.8906Y-3.3205
X2.8921Y-3.0528
X2.8921Y-3.5622
X2.8921Y-3.5949
X2.8921Y-4.2567
X2.8925Y-3.5232
X2.8931Y-3.474
X2.8945Y-3.3972
X2.9016Y-3.7807
X2.9083Y-4.1181
X2.9114Y-4.2126
X2.9118Y-4.15
X2.9256Y-4.2547
X2.9268Y-3.3201
X2.9291Y-3.0555
X2.9295Y-3.2858
X2.9299Y-3.5114
X2.9315Y-3.4686
X2.9327Y-3.4461
X2.9331Y-3.1303
X2.9339Y-3.3618
X2.9358Y-3.5622
X2.9394Y-4.2118
X2.9413Y-3.8665
X2.9421Y-4.1823
X2.9437Y-4.572
X2.9445Y-4.2539
X2.9446Y-4.0824
X2.9453Y-4.152
X2.9457Y-3.7768
X2.9583Y-3.8236
X2.9661Y-3.3335
X2.9685Y-4.1472
X2.9693Y-3.0543
X2.9701Y-3.1319
X2.9701Y-3.2957
X2.9713Y-3.0917
X2.974Y-2.9925
X2.9749Y-4.1176
X2.9756Y-3.4654
X2.9756Y-3.5945
X2.9776Y-3.1693
X2.9795Y-3.539
X2.9843Y-4.5866
X3.0016Y-3.8654
X3.0024Y-4.022
X3.0031Y-3.9311
X3.0031Y-4.0866
X3.0031Y-4.2106
X3.0043Y-3.9921
X3.0048Y-4.151
X3.0051Y-4.0567
X3.0051Y-4.1815
X3.0177Y-3.1638
X3.0185Y-3.3972
X3.0217Y-3.0984
X3.0346Y-3.9917
X3.035Y-4.0228
X3.0354Y-4.1189
X3.0362Y-4.1819
X3.0366Y-4.0563
X3.0368Y-4.1505
X3.0472Y-3.1496
X3.0472Y-3.2217
X3.0524Y-3.1787
X3.0654Y-4.0547
X3.0657Y-4.0224
X3.0657Y-4.2114
X3.0665Y-4.0854
X3.0665Y-4.1488
X3.0669Y-3.9311
X3.0673Y-3.8984
X3.0673Y-3.9925
X3.0681Y-4.117
X3.0683Y-4.182
X3.0697Y-3.7756
X3.0697Y-3.7933
X3.0713Y-3.402
X3.0921Y-3.172
X3.0945Y-2.9874
X3.0965Y-3.9913
X3.0972Y-4.0232
X3.0976Y-3.1303
X3.0976Y-4.4854
X3.0984Y-4.1185
X3.0996Y-4.1507
X3.0996Y-4.0563
X3.0998Y-4.182
X3.1002Y-4.0872
X3.1098Y-2.9335
X3.126Y-3.6378
X3.126Y-3.8035
X3.1268Y-3.4283
X3.1283Y-4.0213
X3.1287Y-4.0516
X3.1299Y-4.1181
X3.1299Y-4.1508
X3.1299Y-4.1811
X3.1303Y-4.2094
X3.1307Y-3.0933
X3.1307Y-3.1291
X3.1307Y-3.9917
X3.1313Y-4.0875
X3.1319Y-3.172
X3.1547Y-3.4181
X3.1602Y-4.1744
X3.1618Y-4.15
X3.163Y-3.9913
X3.1638Y-4.022
X3.1642Y-4.4524
X3.1661Y-3.9441
X3.1665Y-3.8988
X3.1669Y-3.8689
X3.1677Y-3.0531
X3.1689Y-3.1358
X3.1709Y-4.0709
X3.1709Y-4.2043
X3.1736Y-3.0945
X3.1815Y-3.2189
X3.1921Y-4.1992
X3.2071Y-3.1295
X3.2075Y-3.0531
X3.2453Y-3.0929
X3.2484Y-3.052
X3.252Y-3.2173
X3.2594Y-3.5035
X3.3028Y-4.1457
X3.3075Y-3.4866
X3.3461Y-4.278
X3.3783Y-3.4028
X3.4028Y-4.2811
X3.6024Y-2.0882
X3.687Y-2.0189
X3.6898Y-1.9949
X3.7276Y-4.1016
X4.2449Y-3.8937
T2
X1.063Y-5.4626
X1.063Y-5.502
X1.063Y-5.5413
X1.063Y-5.5807
X1.063Y-5.6201
X1.063Y-5.6594
X1.0827Y-5.3839
X1.0827Y-5.4232
X1.1122Y-5.3543
X1.1122Y-5.6791
X1.122Y-5.4232
X1.1417Y-5.3248
X1.1614Y-5.4232
X1.1614Y-5.6791
X1.1713Y-5.2953
X1.2008Y-5.2657
X1.2008Y-5.4232
X1.2106Y-5.6791
X1.2303Y-5.2362
X1.2303Y-5.4626
X1.2303Y-5.502
X1.2303Y-5.5413
X1.2303Y-5.5807
X1.2303Y-5.6201
X1.2402Y-5.4232
X1.2598Y-5.2067
X1.2598Y-5.6791
X1.2894Y-5.1772
X1.2894Y-5.2657
X1.2894Y-5.3051
X1.2894Y-5.3445
X1.2894Y-5.3839
X1.2894Y-5.4232
X1.3091Y-5.2264
X1.3091Y-5.6791
X1.3189Y-5.1476
X1.3386Y-5.1969
X1.3484Y-5.1181
X1.3583Y-5.3051
X1.3583Y-5.3445
X1.3583Y-5.3839
X1.3583Y-5.4232
X1.3583Y-5.6791
X1.3681Y-5.1673
X1.3681Y-5.2657
X1.378Y-5.0886
X1.3976Y-5.1378
X1.3976Y-5.2362
X1.3976Y-5.4232
X1.4075Y-5.0591
X1.4075Y-5.4626
X1.4075Y-5.502
X1.4075Y-5.5413
X1.4075Y-5.5807
X1.4075Y-5.6201
X1.4075Y-5.6791
X1.4272Y-5.2067
X1.437Y-5.0295
X1.437Y-5.1083
X1.437Y-5.4232
X1.4567Y-5.1772
X1.4567Y-5.6791
X1.4764Y-5.4232
X1.4862Y-1.8012
X1.4862Y-1.8504
X1.4862Y-1.8996
X1.4862Y-1.9488
X1.4862Y-1.998
X1.4862Y-2.0472
X1.4862Y-2.0965
X1.4862Y-2.1457
X1.4862Y-2.1949
X1.4862Y-2.2441
X1.4862Y-2.2933
X1.4862Y-2.3425
X1.4862Y-2.3917
X1.4862Y-2.4409
X1.4862Y-2.4902
X1.4862Y-2.5394
X1.4862Y-2.5886
X1.4862Y-2.6378
X1.4862Y-2.687
X1.4862Y-2.7362
X1.4862Y-2.9823
X1.4862Y-3.0315
X1.4862Y-3.0807
X1.4862Y-3.1299
X1.4862Y-3.1791
X1.4862Y-3.2283
X1.4862Y-3.2776
X1.4862Y-3.3268
X1.4862Y-3.376
X1.4862Y-3.4252
X1.4862Y-3.4744
X1.4862Y-3.5236
X1.4862Y-3.5728
X1.4862Y-3.622
X1.4862Y-3.6713
X1.4862Y-3.7205
X1.4862Y-3.7697
X1.4862Y-3.8189
X1.4862Y-3.8681
X1.4862Y-3.9173
X1.4862Y-3.9665
X1.4862Y-4.0157
X1.4862Y-4.065
X1.4862Y-4.1142
X1.4862Y-4.1634
X1.4862Y-4.2126
X1.4862Y-4.2618
X1.4862Y-4.311
X1.4862Y-4.3602
X1.4862Y-4.4094
X1.4862Y-4.4587
X1.4862Y-4.5079
X1.4862Y-4.5571
X1.4862Y-4.6063
X1.4862Y-4.6555
X1.4862Y-4.7047
X1.4862Y-4.7539
X1.4862Y-4.8031
X1.4862Y-4.8524
X1.4862Y-4.9016
X1.4862Y-4.9508
X1.4862Y-5.
X1.4862Y-5.0492
X1.4862Y-5.0886
X1.4862Y-5.1575
X1.5059Y-5.6791
X1.5157Y-5.4232
X1.5354Y-1.8012
X1.5354Y-5.0886
X1.5354Y-5.1575
X1.5551Y-5.4232
X1.5551Y-5.6791
X1.5748Y-5.0591
X1.5748Y-5.1476
X1.5748Y-5.4626
X1.5748Y-5.502
X1.5748Y-5.5413
X1.5748Y-5.5807
X1.5748Y-5.6201
X1.5846Y-1.8012
X1.5945Y-4.3996
X1.5945Y-4.439
X1.5945Y-4.4783
X1.5945Y-4.5177
X1.5945Y-5.4232
X1.6043Y-5.0295
X1.6043Y-5.6791
X1.6142Y-4.2815
X1.6142Y-4.3209
X1.6142Y-4.3602
X1.6142Y-4.5472
X1.6142Y-4.5866
X1.6142Y-4.626
X1.6142Y-4.6654
X1.6142Y-4.7047
X1.6142Y-4.7441
X1.6142Y-4.7835
X1.6142Y-4.8228
X1.6142Y-4.8622
X1.6142Y-4.9016
X1.6142Y-4.9803
X1.6142Y-5.1476
X1.624Y-4.2421
X1.6339Y-1.8012
X1.6339Y-5.4232
X1.6437Y-4.2028
X1.6437Y-4.4705
X1.6437Y-5.1181
X1.6535Y-3.7894
X1.6535Y-5.2854
X1.6535Y-5.6791
X1.6618Y-3.1661
X1.6732Y-4.1043
X1.6732Y-4.1732
X1.6732Y-5.0492
X1.6732Y-5.0886
X1.6783Y-4.4705
X1.6831Y-1.8012
X1.6831Y-4.0256
X1.6831Y-4.9016
X1.6831Y-5.
X1.6831Y-5.4232
X1.6862Y-3.5461
X1.6929Y-3.9764
X1.6929Y-4.252
X1.6929Y-4.2815
X1.6929Y-4.3209
X1.6929Y-4.3504
X1.6929Y-4.5866
X1.6929Y-4.626
X1.6929Y-4.6654
X1.6929Y-4.7047
X1.6929Y-4.7441
X1.6929Y-4.7835
X1.6929Y-4.8228
X1.7028Y-3.7894
X1.7028Y-4.1437
X1.7028Y-5.2854
X1.7028Y-5.6791
X1.7126Y-3.8878
X1.7126Y-4.2224
X1.7224Y-4.5866
X1.7276Y-3.1598
X1.7276Y-3.3339
X1.7276Y-3.3669
X1.7323Y-1.8012
X1.7323Y-4.0748
X1.7323Y-4.1142
X1.7323Y-4.8524
X1.7323Y-5.4232
X1.7323Y-5.4626
X1.7323Y-5.502
X1.7323Y-5.5413
X1.7323Y-5.5807
X1.7323Y-5.6201
X1.7323Y-5.6594
X1.7366Y-4.4717
X1.7433Y-4.1929
X1.7646Y-3.3339
X1.7646Y-3.3669
X1.7701Y-3.5287
X1.7717Y-3.8287
X1.7768Y-3.6252
X1.778Y-3.576
X1.7815Y-1.8012
X1.7815Y-4.0256
X1.7815Y-4.1634
X1.7815Y-5.4232
X1.7815Y-5.6791
X1.7913Y-3.9469
X1.8012Y-5.3839
X1.811Y-4.0059
X1.811Y-5.3445
X1.8209Y-4.1535
X1.8209Y-4.5177
X1.8209Y-4.5472
X1.8209Y-4.5866
X1.824Y-4.4276
X1.8307Y-1.8012
X1.8307Y-5.6791
X1.8406Y-5.3248
X1.8445Y-3.552
X1.848Y-3.6122
X1.85Y-3.6638
X1.8504Y-3.9862
X1.8504Y-4.5866
X1.8504Y-4.6457
X1.8602Y-3.7402
X1.8602Y-5.4232
X1.8606Y-3.4953
X1.8701Y-3.8681
X1.8701Y-4.1043
X1.8701Y-4.4291
X1.8701Y-4.4685
X1.8701Y-4.6752
X1.8701Y-4.7244
X1.8701Y-4.7638
X1.8701Y-4.8031
X1.8701Y-4.8425
X1.8701Y-4.8819
X1.8701Y-4.9213
X1.8701Y-4.9606
X1.8701Y-5.
X1.8701Y-5.0886
X1.8701Y-5.128
X1.8701Y-5.1673
X1.8701Y-5.2067
X1.8701Y-5.2461
X1.8701Y-5.2854
X1.8701Y-5.3839
X1.8724Y-4.5488
X1.8783Y-3.2083
X1.8799Y-1.8012
X1.8799Y-3.9567
X1.8799Y-4.3799
X1.8799Y-5.6791
X1.8996Y-4.3406
X1.8996Y-5.3543
X1.902Y-4.6091
X1.9094Y-2.185
X1.9094Y-2.2441
X1.9094Y-2.3031
X1.9094Y-2.3622
X1.9094Y-2.4213
X1.9094Y-2.4803
X1.9094Y-2.5394
X1.9094Y-2.5984
X1.9094Y-2.6575
X1.9094Y-2.7165
X1.9094Y-2.7756
X1.9094Y-2.8346
X1.9094Y-2.8937
X1.9094Y-2.9528
X1.9094Y-3.0118
X1.9094Y-3.0709
X1.9094Y-3.1299
X1.9094Y-3.189
X1.9094Y-3.3465
X1.9094Y-3.4055
X1.9094Y-3.4646
X1.9094Y-3.5236
X1.9094Y-3.5827
X1.9094Y-3.6417
X1.9094Y-3.7008
X1.9094Y-4.2913
X1.9094Y-5.4626
X1.9094Y-5.502
X1.9094Y-5.5413
X1.9094Y-5.5807
X1.9094Y-5.6201
X1.9094Y-5.6594
X1.9193Y-3.9469
X1.9193Y-4.0354
X1.9193Y-5.4232
X1.9291Y-1.8012
X1.9291Y-2.1457
X1.9291Y-3.7992
X1.9291Y-5.3248
X1.9366Y-4.6091
X1.939Y-4.4587
X1.939Y-5.0886
X1.939Y-5.128
X1.939Y-5.2461
X1.939Y-5.2854
X1.939Y-5.6791
X1.9488Y-2.815
X1.9488Y-3.9469
X1.9488Y-4.0157
X1.9488Y-4.3898
X1.9488Y-4.4291
X1.9488Y-4.7244
X1.9488Y-4.7638
X1.9488Y-4.8031
X1.9488Y-4.8425
X1.9488Y-4.8819
X1.9488Y-4.9213
X1.9488Y-5.
X1.9488Y-5.1673
X1.9488Y-5.2067
X1.9587Y-2.3425
X1.9587Y-4.2421
X1.9587Y-4.3602
X1.9587Y-5.4232
X1.9606Y-4.5547
X1.9681Y-4.6598
X1.9685Y-3.5236
X1.9783Y-4.9606
X1.9882Y-2.1457
X1.9882Y-2.815
X1.9882Y-3.9469
X1.9882Y-4.0157
X1.9882Y-4.1929
X1.9882Y-4.7244
X1.9882Y-5.6791
X1.998Y-5.4232
X2.0004Y-2.3756
X2.0012Y-2.422
X2.0276Y-3.0217
X2.0276Y-3.9469
X2.0276Y-4.0157
X2.0276Y-4.7244
X2.0362Y-2.3756
X2.0366Y-3.065
X2.037Y-3.4276
X2.0374Y-5.4232
X2.0374Y-5.6791
X2.0386Y-3.3929
X2.039Y-3.3504
X2.0472Y-2.1457
X2.0472Y-2.874
X2.0472Y-2.9134
X2.0472Y-2.9528
X2.0472Y-4.2913
X2.0472Y-4.3209
X2.0551Y-4.5154
X2.0571Y-4.1831
X2.0669Y-3.9469
X2.0669Y-4.0157
X2.0669Y-4.7244
X2.0752Y-3.1083
X2.0768Y-4.252
X2.0768Y-5.4232
X2.0768Y-5.4626
X2.0768Y-5.502
X2.0768Y-5.5413
X2.0768Y-5.5807
X2.0768Y-5.6201
X2.0866Y-2.9528
X2.0866Y-4.5472
X2.0866Y-4.6949
X2.0866Y-5.6791
X2.0965Y-3.6417
X2.1063Y-3.7894
X2.1063Y-3.9469
X2.1063Y-4.0157
X2.1063Y-4.5669
X2.1063Y-4.6654
X2.1063Y-5.2854
X2.1161Y-4.1732
X2.1161Y-4.252
X2.1161Y-5.4232
X2.126Y-2.9528
X2.1268Y-3.5406
X2.1315Y-2.2697
X2.1358Y-5.6791
X2.1457Y-3.9469
X2.1457Y-4.0157
X2.1555Y-4.1732
X2.1555Y-4.252
X2.1555Y-5.4232
X2.1654Y-4.0453
X2.1752Y-3.7894
X2.1752Y-5.2854
X2.185Y-3.9469
X2.185Y-4.6555
X2.185Y-5.6791
X2.1933Y-2.2961
X2.1949Y-4.1732
X2.1949Y-4.252
X2.1949Y-5.4232
X2.2047Y-3.6319
X2.2079Y-2.3811
X2.2083Y-2.5232
X2.2146Y-4.0453
X2.2146Y-4.498
X2.2146Y-4.5374
X2.2146Y-4.5866
X2.2244Y-3.9469
X2.2244Y-4.2815
X2.2244Y-4.685
X2.2244Y-4.7343
X2.2244Y-4.7736
X2.2244Y-4.813
X2.2244Y-4.8524
X2.2244Y-4.8917
X2.2244Y-4.9311
X2.2244Y-4.9705
X2.2343Y-4.1732
X2.2343Y-4.4587
X2.2343Y-5.0098
X2.2343Y-5.4232
X2.2343Y-5.4626
X2.2343Y-5.502
X2.2343Y-5.5413
X2.2343Y-5.5807
X2.2343Y-5.6201
X2.2343Y-5.6791
X2.2366Y-2.2811
X2.2539Y-3.248
X2.2539Y-3.2874
X2.2543Y-2.8429
X2.2563Y-2.8016
X2.2638Y-3.9469
X2.2638Y-4.252
X2.2638Y-4.4193
X2.2638Y-5.0492
X2.2638Y-5.0886
X2.2736Y-4.1732
X2.2736Y-5.4232
X2.2835Y-5.6791
X2.2902Y-2.2272
X2.2913Y-2.2606
X2.2933Y-3.4055
X2.2933Y-3.75
X2.2933Y-4.8917
X2.2933Y-4.9311
X2.2933Y-5.3937
X2.2945Y-2.3756
X2.3031Y-3.9469
X2.3031Y-4.252
X2.3031Y-4.7736
X2.3031Y-4.813
X2.313Y-4.1732
X2.313Y-4.3406
X2.313Y-5.1378
X2.313Y-5.3543
X2.3228Y-4.7047
X2.3228Y-4.8524
X2.3303Y-3.3012
X2.3327Y-4.9705
X2.3327Y-5.3248
X2.3327Y-5.6791
X2.3402Y-2.3713
X2.3425Y-3.9469
X2.3461Y-4.0606
X2.3492Y-4.1193
X2.3524Y-3.6417
X2.3524Y-4.1732
X2.3524Y-4.3307
X2.3524Y-5.0098
X2.3524Y-5.1673
X2.3524Y-5.2165
X2.3524Y-5.2559
X2.3524Y-5.2953
X2.3622Y-5.4035
X2.3689Y-2.7646
X2.3717Y-2.2169
X2.372Y-4.0157
X2.372Y-4.4587
X2.372Y-4.7047
X2.3819Y-4.1437
X2.3819Y-5.374
X2.3819Y-5.4232
X2.3819Y-5.6791
X2.3882Y-3.8736
X2.3917Y-4.252
X2.3917Y-4.3307
X2.3917Y-5.0492
X2.4016Y-4.4291
X2.4016Y-4.498
X2.4016Y-5.0886
X2.4016Y-5.3346
X2.4031Y-2.3933
X2.4047Y-4.0583
X2.4047Y-4.1016
X2.4114Y-3.75
X2.4114Y-4.5374
X2.4114Y-4.5866
X2.4114Y-4.626
X2.4114Y-4.6654
X2.4114Y-5.2559
X2.4114Y-5.2953
X2.4114Y-5.4232
X2.4114Y-5.4626
X2.4114Y-5.502
X2.4114Y-5.5413
X2.4114Y-5.5807
X2.4114Y-5.6201
X2.413Y-4.0079
X2.4213Y-5.128
X2.4213Y-5.1673
X2.4213Y-5.2165
X2.422Y-3.3669
X2.4287Y-4.1913
X2.4291Y-4.1339
X2.4291Y-4.2453
X2.4311Y-4.3307
X2.4311Y-5.6791
X2.435Y-4.0559
X2.4394Y-4.1039
X2.4508Y-4.4291
X2.4508Y-5.4232
X2.4543Y-3.874
X2.4705Y-4.252
X2.4705Y-4.3307
X2.4791Y-3.9106
X2.4803Y-4.4587
X2.4803Y-5.6791
X2.4823Y-2.0398
X2.4831Y-2.0693
X2.4831Y-4.002
X2.4902Y-4.2323
X2.4902Y-5.4232
X2.4906Y-4.1437
X2.4957Y-2.6709
X2.4969Y-2.389
X2.5039Y-2.598
X2.5142Y-3.7398
X2.5295Y-2.7559
X2.5295Y-4.3799
X2.5295Y-4.6752
X2.5295Y-4.8622
X2.5295Y-5.4232
X2.5295Y-5.6791
X2.539Y-3.4071
X2.5492Y-2.7165
X2.5551Y-4.5079
X2.5551Y-4.5591
X2.5551Y-4.6457
X2.5559Y-4.4685
X2.5563Y-3.9071
X2.5591Y-3.622
X2.5594Y-4.1441
X2.5661Y-3.9909
X2.5689Y-5.4232
X2.5689Y-5.4626
X2.5689Y-5.502
X2.5689Y-5.5413
X2.5689Y-5.5807
X2.5689Y-5.6201
X2.5764Y-2.8201
X2.5787Y-5.6791
X2.5886Y-2.7657
X2.5898Y-2.6768
X2.5984Y-3.622
X2.6004Y-4.1799
X2.6079Y-2.2583
X2.6091Y-2.1433
X2.6122Y-2.4551
X2.6177Y-2.1839
X2.6181Y-1.8012
X2.6181Y-2.7953
X2.6244Y-4.2563
X2.6256Y-4.4685
X2.628Y-2.8445
X2.628Y-5.6791
X2.6303Y-3.848
X2.6339Y-3.9094
X2.6343Y-4.1346
X2.6378Y-2.6772
X2.6378Y-3.622
X2.6378Y-4.3799
X2.6378Y-4.5079
X2.6378Y-4.5472
X2.6378Y-4.5866
X2.6378Y-4.626
X2.6378Y-4.6654
X2.6378Y-4.7047
X2.6378Y-4.7441
X2.6378Y-4.7835
X2.6378Y-4.8228
X2.6441Y-3.7988
X2.6579Y-3.4858
X2.6634Y-4.1012
X2.6669Y-4.235
X2.6673Y-1.8012
X2.6673Y-4.4685
X2.6772Y-2.6772
X2.6772Y-2.7165
X2.6772Y-2.7559
X2.6772Y-2.7953
X2.6772Y-2.8346
X2.6772Y-2.874
X2.6772Y-4.8425
X2.6772Y-5.6791
X2.6843Y-4.0102
X2.687Y-4.3799
X2.6945Y-3.3268
X2.6969Y-3.2862
X2.7Y-2.4075
X2.7Y-3.4051
X2.7067Y-4.3504
X2.7067Y-4.4685
X2.7118Y-2.1031
X2.7142Y-4.2173
X2.7165Y-1.8012
X2.7165Y-4.8425
X2.7201Y-2.5469
X2.7224Y-2.4953
X2.7228Y-2.448
X2.7264Y-5.6791
X2.7335Y-3.4402
X2.7362Y-4.3209
X2.737Y-3.3638
X2.7378Y-3.2854
X2.739Y-2.361
X2.7461Y-4.4587
X2.748Y-4.185
X2.7533Y-4.053
X2.7547Y-3.9114
X2.7559Y-4.8425
X2.7559Y-5.2362
X2.7657Y-1.8012
X2.7657Y-4.252
X2.774Y-2.6752
X2.7752Y-2.5933
X2.7756Y-3.4079
X2.7756Y-4.439
X2.7756Y-5.6791
X2.7772Y-2.7319
X2.7858Y-4.5264
X2.787Y-4.474
X2.7894Y-4.5858
X2.7953Y-4.8425
X2.7965Y-2.3665
X2.8051Y-4.4094
X2.8102Y-4.6882
X2.815Y-1.8012
X2.815Y-5.3346
X2.8248Y-5.6791
X2.8307Y-2.5303
X2.8346Y-4.3799
X2.8346Y-4.8425
X2.8366Y-2.4283
X2.8402Y-2.4827
X2.8543Y-4.3406
X2.8543Y-5.3346
X2.8579Y-4.2929
X2.8598Y-4.2567
X2.8642Y-1.8012
X2.8697Y-4.6878
X2.8709Y-2.372
X2.874Y-4.8425
X2.874Y-5.6791
X2.8776Y-5.2315
X2.8819Y-1.8996
X2.8827Y-4.4315
X2.8937Y-4.3504
X2.8945Y-4.5272
X2.8972Y-4.5858
X2.9071Y-2.0421
X2.9134Y-1.8012
X2.9134Y-4.8425
X2.9232Y-5.3346
X2.9232Y-5.6791
X2.9315Y-2.9043
X2.9331Y-2.828
X2.9331Y-4.3701
X2.9331Y-4.4094
X2.9331Y-4.4488
X2.9331Y-4.4882
X2.9331Y-4.5472
X2.9358Y-2.5917
X2.9409Y-2.2323
X2.9528Y-4.3406
X2.9528Y-4.8425
X2.9626Y-1.8012
X2.9626Y-4.5177
X2.9626Y-5.3346
X2.9669Y-2.5929
X2.9693Y-2.3752
X2.9724Y-5.6791
X2.9921Y-4.8425
X3.0106Y-2.2307
X3.0118Y-1.8012
X3.0146Y-2.5783
X3.0217Y-5.2953
X3.0217Y-5.6791
X3.0315Y-2.9039
X3.0315Y-4.8425
X3.0358Y-2.8283
X3.0598Y-3.6709
X3.061Y-1.8012
X3.061Y-5.2953
X3.0673Y-2.5453
X3.0677Y-4.3224
X3.0709Y-4.8425
X3.0709Y-5.6791
X3.0807Y-4.6358
X3.1004Y-4.4094
X3.1102Y-4.6654
X3.1102Y-4.8425
X3.1157Y-3.6874
X3.1201Y-5.6791
X3.1398Y-4.6949
X3.1433Y-2.3756
X3.1433Y-2.9449
X3.1496Y-4.8425
X3.1531Y-2.876
X3.1551Y-2.9094
X3.1594Y-1.8012
X3.1594Y-4.5866
X3.1693Y-5.6791
X3.1791Y-4.7146
X3.1815Y-4.2882
X3.189Y-4.8425
X3.2024Y-3.9535
X3.2051Y-4.0657
X3.2087Y-1.8012
X3.2087Y-2.6772
X3.2087Y-4.4587
X3.2173Y-2.9799
X3.2185Y-5.6791
X3.2205Y-4.626
X3.226Y-4.0146
X3.2283Y-3.5827
X3.2283Y-3.6319
X3.2283Y-4.7146
X3.2283Y-4.8425
X3.2311Y-3.6862
X3.2362Y-3.8346
X3.2378Y-4.065
X3.2382Y-4.3996
X3.2382Y-4.4882
X3.2453Y-1.9382
X3.2579Y-1.8012
X3.2579Y-4.4587
X3.2677Y-4.5472
X3.2677Y-4.5866
X3.2677Y-4.626
X3.2677Y-4.7146
X3.2677Y-4.7638
X3.2677Y-4.8031
X3.2677Y-4.8425
X3.2677Y-5.4232
X3.2677Y-5.6791
X3.2776Y-4.3898
X3.2776Y-4.4882
X3.2972Y-2.0472
X3.3043Y-2.4323
X3.3071Y-1.8012
X3.3071Y-4.4587
X3.3071Y-5.4232
X3.3114Y-3.1831
X3.3161Y-2.3098
X3.3169Y-5.4528
X3.3169Y-5.4921
X3.3169Y-5.5315
X3.3169Y-5.5709
X3.3169Y-5.6102
X3.3169Y-5.6791
X3.3465Y-4.4587
X3.3465Y-5.4232
X3.3563Y-1.8012
X3.3563Y-4.3898
X3.3563Y-4.8031
X3.3563Y-4.8425
X3.3563Y-4.8917
X3.3661Y-5.0886
X3.3661Y-5.1575
X3.3661Y-5.6791
X3.376Y-2.2343
X3.376Y-4.626
X3.3858Y-2.0472
X3.3858Y-4.4587
X3.3858Y-5.4232
X3.4016Y-4.3898
X3.4055Y-1.8012
X3.4055Y-3.2972
X3.4059Y-2.4449
X3.4154Y-5.6791
X3.4252Y-4.4587
X3.4252Y-4.7146
X3.4252Y-5.4232
X3.4299Y-2.3669
X3.435Y-4.813
X3.435Y-4.8622
X3.435Y-4.9016
X3.435Y-4.9409
X3.435Y-4.9803
X3.435Y-5.0197
X3.4445Y-2.987
X3.4449Y-4.3898
X3.4478Y-4.626
X3.4547Y-1.8012
X3.4547Y-3.3169
X3.4547Y-5.0591
X3.4551Y-2.6886
X3.4646Y-4.4587
X3.4646Y-4.7343
X3.4646Y-4.7835
X3.4646Y-5.0984
X3.4646Y-5.4232
X3.4646Y-5.6791
X3.4677Y-2.511
X3.4744Y-3.5039
X3.4744Y-3.5335
X3.4744Y-4.9213
X3.4744Y-5.4528
X3.4744Y-5.4921
X3.4744Y-5.5315
X3.4744Y-5.5709
X3.4744Y-5.6102
X3.4843Y-2.0472
X3.4843Y-4.2205
X3.4843Y-5.1476
X3.4878Y-2.3669
X3.4941Y-2.2343
X3.4941Y-5.187
X3.4941Y-5.2362
X3.4941Y-5.3248
X3.5039Y-1.8012
X3.5039Y-3.6909
X3.5039Y-4.185
X3.5039Y-4.4587
X3.5039Y-5.3543
X3.5039Y-5.4232
X3.5138Y-3.2972
X3.5138Y-4.9213
X3.5138Y-5.6791
X3.5236Y-2.3669
X3.5236Y-4.6555
X3.5236Y-5.3937
X3.5315Y-4.063
X3.5315Y-4.122
X3.5335Y-4.813
X3.5335Y-5.0591
X3.5374Y-3.8024
X3.5433Y-3.6909
X3.5433Y-3.7598
X3.5433Y-4.4685
X3.5433Y-5.0984
X3.5531Y-1.8012
X3.5531Y-4.3996
X3.5531Y-4.685
X3.5531Y-4.9213
X3.561Y-2.9362
X3.563Y-5.1378
X3.563Y-5.187
X3.563Y-5.2362
X3.563Y-5.6791
X3.5669Y-2.3673
X3.5728Y-3.1201
X3.5728Y-5.3248
X3.5827Y-4.498
X3.5827Y-4.7343
X3.5827Y-5.0591
X3.5925Y-2.2343
X3.5925Y-4.9213
X3.5925Y-5.374
X3.5933Y-2.7083
X3.5965Y-2.7457
X3.5972Y-2.7894
X3.598Y-2.3512
X3.5988Y-2.313
X3.5992Y-2.4118
X3.6024Y-1.8012
X3.6024Y-4.7835
X3.6122Y-4.439
X3.6122Y-4.5276
X3.6122Y-5.6791
X3.622Y-1.9783
X3.622Y-5.0591
X3.622Y-5.4232
X3.6319Y-4.8425
X3.6319Y-4.8819
X3.6319Y-4.9213
X3.6404Y-2.9585
X3.6413Y-4.0504
X3.6417Y-3.6909
X3.6417Y-3.7598
X3.6417Y-4.5669
X3.6417Y-4.7244
X3.6417Y-4.7638
X3.6417Y-4.8031
X3.6417Y-4.9803
X3.6417Y-5.0197
X3.6492Y-2.9909
X3.6516Y-1.8012
X3.6516Y-2.2343
X3.6516Y-3.6122
X3.6516Y-4.4783
X3.6516Y-5.4528
X3.6516Y-5.4921
X3.6516Y-5.5315
X3.6516Y-5.5709
X3.6516Y-5.6102
X3.6583Y-3.0689
X3.6614Y-4.626
X3.6614Y-4.6654
X3.6614Y-4.7047
X3.6614Y-4.9508
X3.6614Y-5.0689
X3.6614Y-5.4232
X3.6614Y-5.6791
X3.6909Y-3.6909
X3.6909Y-3.7598
X3.6909Y-4.5177
X3.6909Y-5.1181
X3.698Y-3.0976
X3.7008Y-1.8012
X3.7008Y-1.8504
X3.7008Y-1.8996
X3.7008Y-5.4232
X3.7106Y-5.6791
X3.7197Y-2.652
X3.7205Y-4.5472
X3.7303Y-4.5768
X3.7303Y-4.9705
X3.7303Y-5.0098
X3.7303Y-5.0492
X3.7303Y-5.1476
X3.7402Y-3.6909
X3.7402Y-3.7598
X3.7402Y-4.626
X3.7402Y-4.6654
X3.7402Y-4.7047
X3.7402Y-5.4232
X3.75Y-1.8996
X3.75Y-1.9685
X3.75Y-2.0669
X3.7598Y-5.0689
X3.7598Y-5.6791
X3.7697Y-3.1988
X3.7795Y-5.0886
X3.7795Y-5.1575
X3.7795Y-5.4232
X3.7894Y-3.6909
X3.7894Y-3.7598
X3.7992Y-1.8996
X3.8091Y-4.7736
X3.8091Y-4.813
X3.8091Y-4.8524
X3.8091Y-5.6791
X3.8189Y-4.9803
X3.8189Y-5.0886
X3.8189Y-5.1575
X3.8189Y-5.4232
X3.8189Y-5.4528
X3.8189Y-5.4921
X3.8189Y-5.5315
X3.8189Y-5.5709
X3.8189Y-5.6102
X3.8287Y-2.874
X3.8386Y-2.6575
X3.8386Y-3.6909
X3.8386Y-3.7598
X3.8386Y-4.7736
X3.8386Y-4.813
X3.8386Y-4.8524
X3.8484Y-1.8996
X3.8484Y-2.2441
X3.8484Y-2.313
X3.8583Y-5.0886
X3.8583Y-5.1575
X3.8583Y-5.4232
X3.8583Y-5.6791
X3.8681Y-4.7736
X3.8681Y-4.813
X3.8681Y-4.8524
X3.8681Y-4.9902
X3.8705Y-4.937
X3.8878Y-3.6909
X3.8878Y-3.7598
X3.8976Y-1.8996
X3.8976Y-2.3819
X3.8976Y-2.5394
X3.8976Y-2.6181
X3.8976Y-2.6575
X3.8976Y-2.815
X3.8976Y-2.8543
X3.8976Y-2.9921
X3.8976Y-3.0906
X3.8976Y-3.1693
X3.8976Y-3.248
X3.8976Y-3.6319
X3.8976Y-5.0886
X3.8976Y-5.1575
X3.8976Y-5.4232
X3.9075Y-5.6791
X3.9173Y-2.313
X3.937Y-3.6909
X3.937Y-3.7598
X3.937Y-5.4232
X3.9469Y-1.8996
X3.9469Y-5.0886
X3.9469Y-5.1772
X3.9567Y-3.7795
X3.9567Y-5.0098
X3.9567Y-5.6791
X3.9665Y-3.8386
X3.9665Y-3.8878
X3.9665Y-3.937
X3.9665Y-3.9862
X3.9665Y-4.0354
X3.9665Y-4.0846
X3.9665Y-4.1339
X3.9665Y-4.1831
X3.9665Y-5.2362
X3.9764Y-4.2224
X3.9764Y-5.315
X3.9764Y-5.4232
X3.9862Y-3.7008
X3.9862Y-4.252
X3.9961Y-1.8996
X3.9961Y-4.4882
X3.9961Y-4.5276
X3.9961Y-4.5669
X3.9961Y-4.6063
X3.9961Y-4.6457
X3.9961Y-4.685
X3.9961Y-5.1181
X3.9961Y-5.3543
X3.9961Y-5.4528
X3.9961Y-5.4921
X3.9961Y-5.5315
X3.9961Y-5.5709
X3.9961Y-5.6102
X4.0059Y-4.2913
X4.0059Y-4.4094
X4.0059Y-4.4488
X4.0059Y-5.6791
X4.0157Y-3.7303
X4.0157Y-4.3701
X4.0157Y-4.7146
X4.0157Y-4.7539
X4.0157Y-4.7933
X4.0157Y-4.8327
X4.0157Y-4.872
X4.0157Y-4.9114
X4.0157Y-4.9508
X4.0157Y-5.1476
X4.0181Y-3.3925
X4.0189Y-2.4732
X4.0209Y-3.4728
X4.0256Y-4.3307
X4.0256Y-5.0197
X4.0256Y-5.3839
X4.0256Y-5.4232
X4.0354Y-3.7795
X4.0354Y-3.8386
X4.0354Y-3.8878
X4.0354Y-3.937
X4.0354Y-3.9862
X4.0354Y-4.0354
X4.0354Y-4.0846
X4.0354Y-4.1339
X4.0354Y-4.1831
X4.0354Y-5.1969
X4.0354Y-5.2362
X4.0413Y-3.6031
X4.0453Y-5.0591
X4.0551Y-1.8996
X4.0551Y-4.2224
X4.0551Y-5.315
X4.0551Y-5.6791
X4.065Y-3.239
X4.0748Y-4.2618
X4.0748Y-5.0886
X4.0846Y-4.7539
X4.0846Y-4.7933
X4.0846Y-4.8327
X4.0846Y-4.872
X4.0846Y-4.9114
X4.0846Y-4.9508
X4.0846Y-5.3445
X4.0933Y-3.6528
X4.0945Y-4.3307
X4.0945Y-4.3701
X4.0945Y-4.4094
X4.0945Y-4.4488
X4.0969Y-3.602
X4.1043Y-1.8996
X4.1043Y-4.498
X4.1043Y-5.0098
X4.1043Y-5.1181
X4.1043Y-5.6791
X4.1071Y-3.3476
X4.1071Y-3.3807
X4.1142Y-5.3839
X4.124Y-2.1555
X4.124Y-2.1949
X4.1339Y-5.0394
X4.1339Y-5.4232
X4.1382Y-2.3555
X4.1409Y-3.9945
X4.1437Y-5.1476
X4.1441Y-3.3476
X4.1441Y-3.3807
X4.1512Y-3.5634
X4.1512Y-3.6106
X4.1535Y-1.8996
X4.1535Y-4.5079
X4.1535Y-5.6791
X4.1634Y-3.7402
X4.1634Y-4.5472
X4.1634Y-4.5866
X4.1634Y-4.626
X4.1732Y-4.7638
X4.1732Y-5.0689
X4.1732Y-5.4528
X4.1732Y-5.4921
X4.1732Y-5.5315
X4.1732Y-5.5709
X4.1732Y-5.6102
X4.1831Y-5.4232
X4.1929Y-4.5472
X4.1929Y-4.5866
X4.1929Y-4.626
X4.1941Y-3.6701
X4.1974Y-4.0722
X4.2028Y-1.8996
X4.2028Y-5.6791
X4.2031Y-3.1681
X4.2094Y-3.4921
X4.2126Y-5.0787
X4.2126Y-5.1575
X4.2224Y-4.5472
X4.2224Y-4.5866
X4.2224Y-4.626
X4.2224Y-5.4232
X4.2244Y-3.5846
X4.2323Y-2.1555
X4.2323Y-2.2047
X4.2323Y-4.7638
X4.2335Y-4.7205
X4.2429Y-3.8449
X4.252Y-1.8996
X4.252Y-5.6791
X4.2618Y-5.0787
X4.2618Y-5.1575
X4.2618Y-5.4232
X4.2913Y-3.7402
X4.2945Y-3.1681
X4.3012Y-1.8012
X4.3012Y-1.8504
X4.3012Y-1.8996
X4.3012Y-3.6516
X4.3012Y-5.4232
X4.3012Y-5.6791
X4.3075Y-4.7209
X4.311Y-4.7835
X4.311Y-5.0787
X4.311Y-5.1575
X4.3406Y-1.8012
X4.3406Y-5.4232
X4.3406Y-5.4528
X4.3406Y-5.4921
X4.3406Y-5.5315
X4.3406Y-5.5709
X4.3406Y-5.6102
X4.3504Y-5.6791
X4.3799Y-1.8012
X4.3799Y-5.4232
X4.3996Y-5.0787
X4.3996Y-5.1575
X4.3996Y-5.6791
X4.4193Y-1.8012
X4.4193Y-1.8504
X4.4193Y-1.8996
X4.4193Y-1.9488
X4.4193Y-1.998
X4.4193Y-2.0472
X4.4193Y-2.0965
X4.4193Y-2.1457
X4.4193Y-2.1949
X4.4193Y-2.2441
X4.4193Y-2.2933
X4.4193Y-2.3425
X4.4193Y-2.3917
X4.4193Y-2.4409
X4.4193Y-2.4902
X4.4193Y-2.5394
X4.4193Y-2.5886
X4.4193Y-2.6378
X4.4193Y-2.687
X4.4193Y-2.7362
X4.4193Y-2.7854
X4.4193Y-2.8346
X4.4193Y-2.8839
X4.4193Y-2.9331
X4.4193Y-2.9823
X4.4193Y-3.0315
X4.4193Y-3.0807
X4.4193Y-3.1299
X4.4193Y-3.1791
X4.4193Y-3.2283
X4.4193Y-3.2776
X4.4193Y-3.3268
X4.4193Y-3.376
X4.4193Y-3.4252
X4.4193Y-3.4744
X4.4193Y-3.5236
X4.4193Y-3.5728
X4.4193Y-3.622
X4.4193Y-3.6713
X4.4193Y-3.7205
X4.4193Y-3.7697
X4.4193Y-3.8189
X4.4193Y-3.8681
X4.4193Y-3.9173
X4.4193Y-3.9665
X4.4193Y-4.0157
X4.4193Y-4.065
X4.4193Y-4.1142
X4.4193Y-4.1634
X4.4193Y-4.2126
X4.4193Y-4.2618
X4.4193Y-4.311
X4.4193Y-4.3602
X4.4193Y-4.4094
X4.4193Y-4.4587
X4.4193Y-4.5079
X4.4193Y-4.5571
X4.4193Y-4.6063
X4.4193Y-4.6555
X4.4193Y-4.7047
X4.4193Y-4.7539
X4.4193Y-4.8031
X4.4193Y-4.8524
X4.4193Y-4.9016
X4.4193Y-4.9508
X4.4193Y-5.
X4.4193Y-5.0492
X4.4193Y-5.4232
X4.439Y-5.1575
X4.4488Y-5.6791
X4.4587Y-5.0787
X4.4587Y-5.4232
X4.4783Y-5.1772
X4.498Y-5.4232
X4.498Y-5.4528
X4.498Y-5.4921
X4.498Y-5.5315
X4.498Y-5.5807
X4.498Y-5.6299
X4.498Y-5.6791
X4.5079Y-5.0886
X4.5079Y-5.2067
X4.5374Y-5.2362
X4.5374Y-5.4232
X4.5472Y-5.1181
X4.5472Y-5.2756
X4.5472Y-5.315
X4.5472Y-5.3543
X4.5472Y-5.3937
X4.5472Y-5.6791
X4.5768Y-5.1476
X4.5965Y-5.6791
X4.6063Y-5.1772
X4.6161Y-5.2362
X4.626Y-5.2756
X4.626Y-5.315
X4.626Y-5.3543
X4.626Y-5.3937
X4.6358Y-5.2067
X4.6457Y-5.6791
X4.6752Y-5.2461
X4.6752Y-5.4232
X4.6752Y-5.4823
X4.6752Y-5.5315
X4.6752Y-5.5807
X4.6752Y-5.6299
X4.6949Y-5.6791
X4.7146Y-5.2854
X4.7146Y-5.4232
X4.7441Y-5.6791
X4.7539Y-5.3248
X4.7539Y-5.4232
X4.7933Y-5.3642
X4.7933Y-5.4232
X4.7933Y-5.6791
X4.8327Y-5.3937
X4.8425Y-5.4331
X4.8425Y-5.4823
X4.8425Y-5.5315
X4.8425Y-5.5807
X4.8425Y-5.6299
X4.8425Y-5.6791
T3
X1.9075Y-1.9098
X1.95Y-1.9098
X2.0327Y-2.2406
X2.0984Y-2.2406
X2.0992Y-2.039
X2.0992Y-2.0776
X2.0992Y-2.1409
X2.1398Y-3.0177
X2.1713Y-2.0386
X2.1724Y-2.0748
X2.1732Y-2.1406
X2.2106Y-2.0402
X2.2114Y-2.074
X2.2248Y-2.1417
X2.2736Y-2.4409
X2.2736Y-2.4902
X2.2736Y-2.5394
X2.3075Y-2.1425
X2.3492Y-2.0406
X2.3622Y-2.4409
X2.3622Y-2.4902
X2.3622Y-2.5394
X2.3815Y-2.1831
X2.3819Y-2.1429
X2.3835Y-2.0366
X2.3839Y-2.0681
X2.3917Y-2.6575
X2.4165Y-2.0374
X2.4165Y-2.0693
X2.4409Y-2.4409
X2.4409Y-2.4902
X2.4409Y-2.5394
X2.4508Y-2.1429
X2.6933Y-4.7614
X2.8083Y-4.7587
X2.8457Y-1.9232
X2.9701Y-2.6772
X3.0067Y-2.6776
X3.0476Y-4.798
X3.0882Y-2.6839
X3.1795Y-2.4795
X3.1795Y-2.5126
X3.2165Y-2.4795
X3.2165Y-2.5126
X3.2217Y-2.3075
X3.2634Y-2.7807
X3.2969Y-3.1394
X3.3098Y-2.7803
X3.3134Y-3.0461
X3.3713Y-3.0909
X3.3713Y-3.2114
X3.3886Y-2.8744
X3.389Y-2.7819
X3.4142Y-3.2118
X3.4437Y-3.0898
X3.4539Y-3.211
X3.4819Y-1.9366
X3.5327Y-3.5118
X3.5378Y-2.8244
X3.5496Y-2.5071
X3.5504Y-3.9909
X3.5504Y-4.0307
X3.5929Y-2.6524
X3.6713Y-3.3465
X3.6984Y-4.0354
X3.7071Y-2.5083
X3.7303Y-3.5433
X3.7374Y-2.4807
X3.7795Y-3.2874
X3.7827Y-3.4445
X3.8197Y-3.3713
X3.935Y-4.9406
X4.1362Y-4.2394
X4.139Y-4.1539
X4.1461Y-4.3071
X4.1933Y-3.2197
X4.2402Y-3.2429
X4.2402Y-4.2709
X4.2531Y-4.1976
X4.2571Y-4.113
X4.2925Y-3.2425
T5
X4.2028Y-2.5787
X4.2028Y-2.6575
X4.2028Y-2.7362
X4.2028Y-2.815
X4.2028Y-2.8937
X4.2028Y-2.9724
X4.2028Y-3.0512
X4.2815Y-2.5787
X4.2815Y-2.6575
X4.2815Y-2.7362
X4.2815Y-2.815
X4.2815Y-2.8937
X4.2815Y-2.9724
X4.2815Y-3.0512
T6
X2.689Y-5.4035
X2.789Y-5.4035
X2.889Y-5.4035
X2.989Y-5.4035
X3.089Y-5.4035
X3.189Y-5.4035
T4
X2.0827Y-1.8465G85X2.0827Y-1.815
G05
X2.5768Y-1.8465G85X2.5768Y-1.815
G05
T0
M30
