G04 #@! TF.FileFunction,Soldermask,Top*
%FSLAX46Y46*%
G04 Gerber Fmt 4.6, Leading zero omitted, Abs format (unit mm)*
G04 Created by KiCad (PCBNEW 4.0.4-stable) date Sun Nov  6 13:49:44 2016*
%MOMM*%
%LPD*%
G01*
G04 APERTURE LIST*
%ADD10C,0.100000*%
%ADD11R,0.800100X0.800100*%
%ADD12R,0.800000X0.750000*%
%ADD13C,0.450000*%
%ADD14R,0.500000X0.600000*%
%ADD15R,5.550000X1.000000*%
%ADD16R,3.800000X1.000000*%
%ADD17R,1.000000X4.580000*%
%ADD18R,1.000000X3.800000*%
%ADD19R,1.000000X4.980000*%
%ADD20R,5.140000X1.000000*%
%ADD21R,0.750000X0.800000*%
%ADD22R,3.050000X1.000000*%
%ADD23R,3.300000X1.000000*%
%ADD24R,1.000000X3.050000*%
%ADD25R,1.000000X3.300000*%
%ADD26R,1.000000X3.150000*%
%ADD27R,1.501140X1.000760*%
%ADD28R,2.999740X1.998980*%
%ADD29R,0.600000X0.500000*%
%ADD30R,2.413000X5.080000*%
%ADD31R,1.250000X5.080000*%
%ADD32R,0.400000X1.350000*%
%ADD33O,0.900000X1.800000*%
%ADD34R,1.900000X1.900000*%
%ADD35R,1.800000X1.900000*%
%ADD36R,1.600000X1.000000*%
%ADD37R,1.727200X2.032000*%
%ADD38O,1.727200X2.032000*%
%ADD39R,1.000000X1.250000*%
%ADD40R,1.250000X1.000000*%
%ADD41R,1.198880X1.198880*%
%ADD42R,0.270000X0.600000*%
%ADD43R,1.700000X0.500000*%
%ADD44R,1.500000X3.400000*%
%ADD45R,3.400000X1.500000*%
%ADD46R,1.350000X1.350000*%
%ADD47C,1.350000*%
%ADD48R,0.400000X0.600000*%
%ADD49R,0.600000X0.400000*%
%ADD50R,0.762000X1.651000*%
%ADD51R,0.300000X0.500000*%
%ADD52R,0.880000X1.060000*%
%ADD53R,0.650000X1.060000*%
%ADD54R,0.420000X0.890000*%
%ADD55R,0.940000X0.840000*%
%ADD56R,1.060000X0.650000*%
%ADD57R,0.900000X1.000000*%
%ADD58O,1.200000X0.220000*%
%ADD59O,0.220000X1.200000*%
%ADD60R,5.450000X5.450000*%
%ADD61R,1.000000X0.900000*%
%ADD62R,0.500000X1.000000*%
%ADD63R,4.800000X5.160000*%
%ADD64C,0.500380*%
%ADD65R,1.300000X1.050000*%
%ADD66R,3.850000X1.000000*%
%ADD67R,1.000000X3.350000*%
%ADD68R,0.350000X0.500000*%
%ADD69R,0.500000X0.350000*%
%ADD70R,1.050000X1.400000*%
%ADD71C,0.700000*%
G04 APERTURE END LIST*
D10*
D11*
X104880000Y-58760760D03*
X106780000Y-58760760D03*
X105830000Y-56761780D03*
D10*
G36*
X57924645Y-127908909D02*
X57571091Y-127555355D01*
X57995355Y-127131091D01*
X58348909Y-127484645D01*
X57924645Y-127908909D01*
X57924645Y-127908909D01*
G37*
G36*
X58702463Y-127131091D02*
X58348909Y-126777537D01*
X58773173Y-126353273D01*
X59126727Y-126706827D01*
X58702463Y-127131091D01*
X58702463Y-127131091D01*
G37*
D12*
X44960000Y-88750000D03*
X46460000Y-88750000D03*
D13*
X71100000Y-98600000D03*
X71100000Y-99400000D03*
X71100000Y-100200000D03*
X71100000Y-101000000D03*
X71100000Y-101800000D03*
X71100000Y-102600000D03*
X71100000Y-103400000D03*
X71100000Y-104200000D03*
X71100000Y-105000000D03*
X71100000Y-105800000D03*
X71100000Y-106600000D03*
X71100000Y-107400000D03*
X71900000Y-98600000D03*
X71900000Y-99400000D03*
X71900000Y-100200000D03*
X71900000Y-101000000D03*
X71900000Y-101800000D03*
X71900000Y-102600000D03*
X71900000Y-103400000D03*
X71900000Y-104200000D03*
X71900000Y-105000000D03*
X71900000Y-105800000D03*
X71900000Y-106600000D03*
X71900000Y-107400000D03*
X72700000Y-98600000D03*
X72700000Y-99400000D03*
X72700000Y-100200000D03*
X72700000Y-101000000D03*
X72700000Y-101800000D03*
X72700000Y-102600000D03*
X72700000Y-103400000D03*
X72700000Y-104200000D03*
X72700000Y-105000000D03*
X72700000Y-105800000D03*
X72700000Y-106600000D03*
X72700000Y-107400000D03*
X73500000Y-98600000D03*
X73500000Y-99400000D03*
X73500000Y-100200000D03*
X73500000Y-101000000D03*
X73500000Y-101800000D03*
X73500000Y-102600000D03*
X73500000Y-103400000D03*
X73500000Y-104200000D03*
X73500000Y-105000000D03*
X73500000Y-105800000D03*
X73500000Y-106600000D03*
X73500000Y-107400000D03*
X74300000Y-98600000D03*
X74300000Y-99400000D03*
X74300000Y-100200000D03*
X74300000Y-101000000D03*
X74300000Y-101800000D03*
X74300000Y-102600000D03*
X74300000Y-103400000D03*
X74300000Y-104200000D03*
X74300000Y-105000000D03*
X74300000Y-105800000D03*
X74300000Y-106600000D03*
X74300000Y-107400000D03*
X75100000Y-98600000D03*
X75100000Y-99400000D03*
X75100000Y-100200000D03*
X75100000Y-101000000D03*
X75100000Y-101800000D03*
X75100000Y-102600000D03*
X75100000Y-103400000D03*
X75100000Y-104200000D03*
X75100000Y-105000000D03*
X75100000Y-105800000D03*
X75100000Y-106600000D03*
X75100000Y-107400000D03*
X75900000Y-98600000D03*
X75900000Y-99400000D03*
X75900000Y-100200000D03*
X75900000Y-101000000D03*
X75900000Y-101800000D03*
X75900000Y-102600000D03*
X75900000Y-103400000D03*
X75900000Y-104200000D03*
X75900000Y-105000000D03*
X75900000Y-105800000D03*
X75900000Y-106600000D03*
X75900000Y-107400000D03*
X76700000Y-98600000D03*
X76700000Y-99400000D03*
X76700000Y-100200000D03*
X76700000Y-101000000D03*
X76700000Y-101800000D03*
X76700000Y-102600000D03*
X76700000Y-103400000D03*
X76700000Y-104200000D03*
X76700000Y-105000000D03*
X76700000Y-105800000D03*
X76700000Y-106600000D03*
X76700000Y-107400000D03*
X77500000Y-98600000D03*
X77500000Y-99400000D03*
X77500000Y-100200000D03*
X77500000Y-101000000D03*
X77500000Y-101800000D03*
X77500000Y-102600000D03*
X77500000Y-103400000D03*
X77500000Y-104200000D03*
X77500000Y-105000000D03*
X77500000Y-105800000D03*
X77500000Y-106600000D03*
X77500000Y-107400000D03*
X78300000Y-98600000D03*
X78300000Y-99400000D03*
X78300000Y-100200000D03*
X78300000Y-101000000D03*
X78300000Y-101800000D03*
X78300000Y-102600000D03*
X78300000Y-103400000D03*
X78300000Y-104200000D03*
X78300000Y-105000000D03*
X78300000Y-105800000D03*
X78300000Y-106600000D03*
X78300000Y-107400000D03*
X79100000Y-98600000D03*
X79100000Y-99400000D03*
X79100000Y-100200000D03*
X79100000Y-101000000D03*
X79100000Y-101800000D03*
X79100000Y-102600000D03*
X79100000Y-103400000D03*
X79100000Y-104200000D03*
X79100000Y-105000000D03*
X79100000Y-105800000D03*
X79100000Y-106600000D03*
X79100000Y-107400000D03*
X79900000Y-98600000D03*
X79900000Y-99400000D03*
X79900000Y-100200000D03*
X79900000Y-101000000D03*
X79900000Y-101800000D03*
X79900000Y-102600000D03*
X79900000Y-103400000D03*
X79900000Y-104200000D03*
X79900000Y-105000000D03*
X79900000Y-105800000D03*
X79900000Y-106600000D03*
X79900000Y-107400000D03*
D14*
X80200000Y-108950000D03*
X80200000Y-110050000D03*
D15*
X81885000Y-95180000D03*
D16*
X75000000Y-95180000D03*
D15*
X68135000Y-95180000D03*
D17*
X65860000Y-96970000D03*
D18*
X65860000Y-103760000D03*
X65860000Y-109760000D03*
X65860000Y-115760000D03*
D19*
X65860000Y-122350000D03*
D20*
X67930000Y-124340000D03*
D16*
X75000000Y-124340000D03*
D15*
X81885000Y-124340000D03*
D19*
X84160000Y-122350000D03*
D18*
X84160000Y-115760000D03*
X84160000Y-109760000D03*
X84160000Y-103760000D03*
D17*
X84160000Y-96970000D03*
D21*
X58940000Y-103140000D03*
X58940000Y-104640000D03*
D22*
X63225000Y-96200000D03*
D23*
X57350000Y-96200000D03*
X51350000Y-96200000D03*
X45350000Y-96200000D03*
D22*
X40075000Y-96200000D03*
D24*
X64250000Y-97225000D03*
D25*
X64250000Y-103100000D03*
X64250000Y-109100000D03*
X64250000Y-115100000D03*
X64250000Y-121100000D03*
X64250000Y-127100000D03*
D26*
X64250000Y-133025000D03*
D22*
X63225000Y-134100000D03*
D23*
X57350000Y-134100000D03*
X51350000Y-134100000D03*
X45350000Y-134100000D03*
D22*
X40075000Y-134100000D03*
D26*
X39050000Y-133025000D03*
D25*
X39050000Y-127100000D03*
X39050000Y-121100000D03*
X39050000Y-115200000D03*
X39050000Y-109100000D03*
X39050000Y-103100000D03*
D24*
X39050000Y-97225000D03*
D22*
X86675000Y-133950000D03*
D23*
X92550000Y-133950000D03*
X98550000Y-133950000D03*
X104550000Y-133950000D03*
D22*
X109825000Y-133950000D03*
D24*
X85650000Y-132925000D03*
D25*
X85650000Y-127050000D03*
X85650000Y-121050000D03*
X85650000Y-115050000D03*
X85650000Y-109050000D03*
X85650000Y-103050000D03*
D26*
X85650000Y-97125000D03*
D22*
X86675000Y-96050000D03*
D23*
X92550000Y-96050000D03*
X98550000Y-96050000D03*
X104550000Y-96050000D03*
D22*
X109825000Y-96050000D03*
D26*
X110850000Y-97125000D03*
D25*
X110850000Y-103050000D03*
X110850000Y-109050000D03*
X110850000Y-114950000D03*
X110850000Y-121050000D03*
X110850000Y-127050000D03*
D24*
X110850000Y-132925000D03*
D27*
X94048340Y-120698860D03*
X94048340Y-122200000D03*
X94048340Y-123701140D03*
D28*
X96999820Y-122200000D03*
D10*
G36*
X95525350Y-123200760D02*
X94776050Y-122700380D01*
X94776050Y-121699620D01*
X95525350Y-121199240D01*
X95525350Y-123200760D01*
X95525350Y-123200760D01*
G37*
D29*
X45160000Y-90210000D03*
X46260000Y-90210000D03*
D30*
X106131500Y-51690000D03*
X97368500Y-51690000D03*
D31*
X101750000Y-51690000D03*
D30*
X99368500Y-140810000D03*
X108131500Y-140810000D03*
D31*
X103750000Y-140810000D03*
D30*
X29168500Y-140810000D03*
X37931500Y-140810000D03*
D31*
X33550000Y-140810000D03*
D32*
X63150000Y-49325000D03*
X62500000Y-49325000D03*
X61850000Y-49325000D03*
X61200000Y-49325000D03*
X60550000Y-49325000D03*
X56450000Y-49325000D03*
X55800000Y-49325000D03*
X55150000Y-49325000D03*
X54500000Y-49325000D03*
X53850000Y-49325000D03*
D33*
X65450000Y-46500000D03*
X52900000Y-46500000D03*
D34*
X63050000Y-46500000D03*
X60650000Y-46500000D03*
D35*
X57850000Y-46500000D03*
X55350000Y-46500000D03*
D36*
X84490000Y-87660000D03*
X84490000Y-90660000D03*
D37*
X81000000Y-137250000D03*
D38*
X78460000Y-137250000D03*
X75920000Y-137250000D03*
X73380000Y-137250000D03*
X70840000Y-137250000D03*
X68300000Y-137250000D03*
D14*
X60530000Y-132270000D03*
X60530000Y-131170000D03*
X48490000Y-131220000D03*
X48490000Y-132320000D03*
X93825000Y-126600000D03*
X93825000Y-127700000D03*
X96325000Y-125400000D03*
X96325000Y-126500000D03*
X97625000Y-125400000D03*
X97625000Y-126500000D03*
X48500000Y-123520000D03*
X48500000Y-124620000D03*
X57350000Y-124750000D03*
X57350000Y-125850000D03*
D21*
X99050000Y-125500000D03*
X99050000Y-127000000D03*
D14*
X94100000Y-117350000D03*
X94100000Y-118450000D03*
X50800000Y-119070000D03*
X50800000Y-117970000D03*
D10*
G36*
X76922182Y-115925736D02*
X77275736Y-115572182D01*
X77700000Y-115996446D01*
X77346446Y-116350000D01*
X76922182Y-115925736D01*
X76922182Y-115925736D01*
G37*
G36*
X77700000Y-116703554D02*
X78053554Y-116350000D01*
X78477818Y-116774264D01*
X78124264Y-117127818D01*
X77700000Y-116703554D01*
X77700000Y-116703554D01*
G37*
G36*
X77772182Y-115025736D02*
X78125736Y-114672182D01*
X78550000Y-115096446D01*
X78196446Y-115450000D01*
X77772182Y-115025736D01*
X77772182Y-115025736D01*
G37*
G36*
X78550000Y-115803554D02*
X78903554Y-115450000D01*
X79327818Y-115874264D01*
X78974264Y-116227818D01*
X78550000Y-115803554D01*
X78550000Y-115803554D01*
G37*
D29*
X72770000Y-116470000D03*
X71670000Y-116470000D03*
D39*
X78450000Y-121900000D03*
X80450000Y-121900000D03*
D10*
G36*
X79221662Y-113651992D02*
X79751992Y-113121662D01*
X80317678Y-113687348D01*
X79787348Y-114217678D01*
X79221662Y-113651992D01*
X79221662Y-113651992D01*
G37*
G36*
X80282322Y-114712652D02*
X80812652Y-114182322D01*
X81378338Y-114748008D01*
X80848008Y-115278338D01*
X80282322Y-114712652D01*
X80282322Y-114712652D01*
G37*
D12*
X72870000Y-118200000D03*
X71370000Y-118200000D03*
D14*
X50800000Y-114820000D03*
X50800000Y-115920000D03*
D10*
G36*
X70474264Y-109522182D02*
X70827818Y-109875736D01*
X70403554Y-110300000D01*
X70050000Y-109946446D01*
X70474264Y-109522182D01*
X70474264Y-109522182D01*
G37*
G36*
X69696446Y-110300000D02*
X70050000Y-110653554D01*
X69625736Y-111077818D01*
X69272182Y-110724264D01*
X69696446Y-110300000D01*
X69696446Y-110300000D01*
G37*
G36*
X71424264Y-110372182D02*
X71777818Y-110725736D01*
X71353554Y-111150000D01*
X71000000Y-110796446D01*
X71424264Y-110372182D01*
X71424264Y-110372182D01*
G37*
G36*
X70646446Y-111150000D02*
X71000000Y-111503554D01*
X70575736Y-111927818D01*
X70222182Y-111574264D01*
X70646446Y-111150000D01*
X70646446Y-111150000D01*
G37*
G36*
X75822182Y-116975736D02*
X76175736Y-116622182D01*
X76600000Y-117046446D01*
X76246446Y-117400000D01*
X75822182Y-116975736D01*
X75822182Y-116975736D01*
G37*
G36*
X76600000Y-117753554D02*
X76953554Y-117400000D01*
X77377818Y-117824264D01*
X77024264Y-118177818D01*
X76600000Y-117753554D01*
X76600000Y-117753554D01*
G37*
D14*
X48500000Y-113370000D03*
X48500000Y-112270000D03*
D29*
X55250000Y-107100000D03*
X54150000Y-107100000D03*
D10*
G36*
X68335355Y-104361091D02*
X68688909Y-104714645D01*
X68264645Y-105138909D01*
X67911091Y-104785355D01*
X68335355Y-104361091D01*
X68335355Y-104361091D01*
G37*
G36*
X67557537Y-105138909D02*
X67911091Y-105492463D01*
X67486827Y-105916727D01*
X67133273Y-105563173D01*
X67557537Y-105138909D01*
X67557537Y-105138909D01*
G37*
G36*
X69185355Y-105211091D02*
X69538909Y-105564645D01*
X69114645Y-105988909D01*
X68761091Y-105635355D01*
X69185355Y-105211091D01*
X69185355Y-105211091D01*
G37*
G36*
X68407537Y-105988909D02*
X68761091Y-106342463D01*
X68336827Y-106766727D01*
X67983273Y-106413173D01*
X68407537Y-105988909D01*
X68407537Y-105988909D01*
G37*
D39*
X82820000Y-59530000D03*
X80820000Y-59530000D03*
D40*
X87110000Y-59100000D03*
X87110000Y-61100000D03*
D21*
X72950000Y-57810000D03*
X72950000Y-59310000D03*
D14*
X92160000Y-60850000D03*
X92160000Y-59750000D03*
D29*
X92010000Y-79280000D03*
X93110000Y-79280000D03*
D39*
X73110000Y-63320000D03*
X75110000Y-63320000D03*
D40*
X77750000Y-67140000D03*
X77750000Y-69140000D03*
D39*
X93270000Y-63690000D03*
X91270000Y-63690000D03*
D36*
X85630000Y-80380000D03*
X85630000Y-77380000D03*
D39*
X93310000Y-65870000D03*
X91310000Y-65870000D03*
D36*
X87970000Y-80390000D03*
X87970000Y-77390000D03*
D21*
X93310000Y-88330000D03*
X93310000Y-86830000D03*
D12*
X46700000Y-81290000D03*
X45200000Y-81290000D03*
X105570000Y-81780000D03*
X104070000Y-81780000D03*
D21*
X102060000Y-83410000D03*
X102060000Y-84910000D03*
D12*
X42210000Y-81260000D03*
X43710000Y-81260000D03*
D29*
X97030000Y-89950000D03*
X95930000Y-89950000D03*
D12*
X96680000Y-85030000D03*
X95180000Y-85030000D03*
D29*
X71200000Y-65290000D03*
X70100000Y-65290000D03*
D12*
X105440000Y-89670000D03*
X106940000Y-89670000D03*
D29*
X45130000Y-91530000D03*
X46230000Y-91530000D03*
X105440000Y-91100000D03*
X106540000Y-91100000D03*
X45140000Y-92830000D03*
X46240000Y-92830000D03*
X105440000Y-92480000D03*
X106540000Y-92480000D03*
D39*
X105050000Y-106630000D03*
X107050000Y-106630000D03*
D29*
X72790000Y-114970000D03*
X71690000Y-114970000D03*
D39*
X105110000Y-104440000D03*
X107110000Y-104440000D03*
D14*
X60300000Y-103120000D03*
X60300000Y-104220000D03*
D29*
X68950000Y-97210000D03*
X67850000Y-97210000D03*
D12*
X105300000Y-108480000D03*
X106800000Y-108480000D03*
D29*
X90650000Y-107720000D03*
X91750000Y-107720000D03*
D14*
X93860000Y-106390000D03*
X93860000Y-107490000D03*
X88780000Y-105580000D03*
X88780000Y-104480000D03*
D21*
X62850000Y-103030000D03*
X62850000Y-104530000D03*
D12*
X73440000Y-109050000D03*
X74940000Y-109050000D03*
D29*
X81470000Y-105720000D03*
X82570000Y-105720000D03*
X81460000Y-104180000D03*
X82560000Y-104180000D03*
D21*
X82420000Y-99650000D03*
X82420000Y-101150000D03*
D29*
X69000000Y-102950000D03*
X67900000Y-102950000D03*
X80760000Y-96690000D03*
X81860000Y-96690000D03*
D12*
X72560000Y-96970000D03*
X71060000Y-96970000D03*
X75910000Y-96820000D03*
X74410000Y-96820000D03*
D29*
X81420000Y-102570000D03*
X82520000Y-102570000D03*
X65770000Y-53200000D03*
X66870000Y-53200000D03*
D10*
G36*
X58366727Y-53263173D02*
X58013173Y-53616727D01*
X57588909Y-53192463D01*
X57942463Y-52838909D01*
X58366727Y-53263173D01*
X58366727Y-53263173D01*
G37*
G36*
X57588909Y-52485355D02*
X57235355Y-52838909D01*
X56811091Y-52414645D01*
X57164645Y-52061091D01*
X57588909Y-52485355D01*
X57588909Y-52485355D01*
G37*
D29*
X67380000Y-60360000D03*
X68480000Y-60360000D03*
D10*
G36*
X59216727Y-52413173D02*
X58863173Y-52766727D01*
X58438909Y-52342463D01*
X58792463Y-51988909D01*
X59216727Y-52413173D01*
X59216727Y-52413173D01*
G37*
G36*
X58438909Y-51635355D02*
X58085355Y-51988909D01*
X57661091Y-51564645D01*
X58014645Y-51211091D01*
X58438909Y-51635355D01*
X58438909Y-51635355D01*
G37*
D14*
X60270000Y-71020000D03*
X60270000Y-72120000D03*
X71070000Y-57570000D03*
X71070000Y-58670000D03*
X51420000Y-87800000D03*
X51420000Y-88900000D03*
D39*
X84070000Y-71810000D03*
X86070000Y-71810000D03*
D36*
X87940000Y-82700000D03*
X87940000Y-85700000D03*
X85640000Y-82700000D03*
X85640000Y-85700000D03*
D39*
X83540000Y-84370000D03*
X81540000Y-84370000D03*
D40*
X81970000Y-87950000D03*
X81970000Y-89950000D03*
X79780000Y-87950000D03*
X79780000Y-89950000D03*
D14*
X98170000Y-69560000D03*
X98170000Y-68460000D03*
X88750000Y-69390000D03*
X88750000Y-68290000D03*
D41*
X76549020Y-50500000D03*
X74450980Y-50500000D03*
X83549020Y-50500000D03*
X81450980Y-50500000D03*
X90549020Y-50500000D03*
X88450980Y-50500000D03*
D42*
X48490000Y-128890000D03*
X48490000Y-127090000D03*
D43*
X48490000Y-127990000D03*
D10*
G36*
X60153987Y-129613069D02*
X59963069Y-129803987D01*
X59538805Y-129379723D01*
X59729723Y-129188805D01*
X60153987Y-129613069D01*
X60153987Y-129613069D01*
G37*
G36*
X58881195Y-128340277D02*
X58690277Y-128531195D01*
X58266013Y-128106931D01*
X58456931Y-127916013D01*
X58881195Y-128340277D01*
X58881195Y-128340277D01*
G37*
G36*
X59987817Y-128435736D02*
X58785736Y-129637817D01*
X58432183Y-129284264D01*
X59634264Y-128082183D01*
X59987817Y-128435736D01*
X59987817Y-128435736D01*
G37*
G36*
X49396931Y-110323987D02*
X49206013Y-110133069D01*
X49630277Y-109708805D01*
X49821195Y-109899723D01*
X49396931Y-110323987D01*
X49396931Y-110323987D01*
G37*
G36*
X50669723Y-109051195D02*
X50478805Y-108860277D01*
X50903069Y-108436013D01*
X51093987Y-108626931D01*
X50669723Y-109051195D01*
X50669723Y-109051195D01*
G37*
G36*
X50574264Y-110157817D02*
X49372183Y-108955736D01*
X49725736Y-108602183D01*
X50927817Y-109804264D01*
X50574264Y-110157817D01*
X50574264Y-110157817D01*
G37*
D29*
X93875000Y-125175000D03*
X94975000Y-125175000D03*
X48490000Y-126060000D03*
X49590000Y-126060000D03*
D14*
X48500000Y-121600000D03*
X48500000Y-120500000D03*
D29*
X48500000Y-119070000D03*
X49600000Y-119070000D03*
D10*
G36*
X78124264Y-113022182D02*
X78477818Y-113375736D01*
X78053554Y-113800000D01*
X77700000Y-113446446D01*
X78124264Y-113022182D01*
X78124264Y-113022182D01*
G37*
G36*
X77346446Y-113800000D02*
X77700000Y-114153554D01*
X77275736Y-114577818D01*
X76922182Y-114224264D01*
X77346446Y-113800000D01*
X77346446Y-113800000D01*
G37*
G36*
X75375736Y-116277818D02*
X75022182Y-115924264D01*
X75446446Y-115500000D01*
X75800000Y-115853554D01*
X75375736Y-116277818D01*
X75375736Y-116277818D01*
G37*
G36*
X76153554Y-115500000D02*
X75800000Y-115146446D01*
X76224264Y-114722182D01*
X76577818Y-115075736D01*
X76153554Y-115500000D01*
X76153554Y-115500000D01*
G37*
D29*
X49600000Y-114820000D03*
X48500000Y-114820000D03*
D10*
G36*
X52177818Y-107724264D02*
X51824264Y-108077818D01*
X51400000Y-107653554D01*
X51753554Y-107300000D01*
X52177818Y-107724264D01*
X52177818Y-107724264D01*
G37*
G36*
X51400000Y-106946446D02*
X51046446Y-107300000D01*
X50622182Y-106875736D01*
X50975736Y-106522182D01*
X51400000Y-106946446D01*
X51400000Y-106946446D01*
G37*
D44*
X83220000Y-68290000D03*
X79820000Y-68290000D03*
D45*
X94930000Y-57900000D03*
X94930000Y-61300000D03*
D44*
X94120000Y-82050000D03*
X90720000Y-82050000D03*
D40*
X91350000Y-98350000D03*
X91350000Y-100350000D03*
X51150000Y-46530000D03*
X51150000Y-48530000D03*
D39*
X65250000Y-51330000D03*
X67250000Y-51330000D03*
D46*
X108750000Y-77500000D03*
D47*
X108750000Y-75500000D03*
X108750000Y-73500000D03*
X108750000Y-71500000D03*
X108750000Y-69500000D03*
X108750000Y-67500000D03*
X108750000Y-65500000D03*
X106750000Y-77500000D03*
X106750000Y-75500000D03*
X106750000Y-73500000D03*
X106750000Y-71500000D03*
X106750000Y-69500000D03*
X106750000Y-67500000D03*
X106750000Y-65500000D03*
D11*
X106850760Y-62090000D03*
X106850760Y-60190000D03*
X104851780Y-61140000D03*
D48*
X75550000Y-52500000D03*
X76450000Y-52500000D03*
X81550000Y-52500000D03*
X82450000Y-52500000D03*
X89550000Y-52500000D03*
X90450000Y-52500000D03*
D49*
X52750000Y-116600000D03*
X52750000Y-117500000D03*
D48*
X74930000Y-57840000D03*
X75830000Y-57840000D03*
D49*
X77800000Y-61150000D03*
X77800000Y-62050000D03*
D48*
X77550000Y-65350000D03*
X78450000Y-65350000D03*
X78440000Y-63980000D03*
X77540000Y-63980000D03*
X89550000Y-62910000D03*
X88650000Y-62910000D03*
X87440000Y-62930000D03*
X86540000Y-62930000D03*
D49*
X90200000Y-78150000D03*
X90200000Y-77250000D03*
X90180000Y-76250000D03*
X90180000Y-75350000D03*
X109340000Y-98490000D03*
X109340000Y-97590000D03*
X69810000Y-66530000D03*
X69810000Y-67430000D03*
X69800000Y-68490000D03*
X69800000Y-69390000D03*
X43550000Y-90060000D03*
X43550000Y-89160000D03*
X42250000Y-89160000D03*
X42250000Y-90060000D03*
X103860000Y-90320000D03*
X103860000Y-89420000D03*
X102540000Y-89410000D03*
X102540000Y-90310000D03*
X88540000Y-74990000D03*
X88540000Y-75890000D03*
X79210000Y-58930000D03*
X79210000Y-59830000D03*
X93870000Y-105050000D03*
X93870000Y-104150000D03*
X83840000Y-82560000D03*
X83840000Y-81660000D03*
D48*
X81620000Y-98160000D03*
X82520000Y-98160000D03*
X60450000Y-57150000D03*
X61350000Y-57150000D03*
D49*
X51300000Y-90460000D03*
X51300000Y-91360000D03*
D48*
X52590000Y-76650000D03*
X53490000Y-76650000D03*
X55190000Y-76630000D03*
X56090000Y-76630000D03*
X54380000Y-87710000D03*
X53480000Y-87710000D03*
X56560000Y-87650000D03*
X55660000Y-87650000D03*
X101750000Y-61140000D03*
X102650000Y-61140000D03*
D49*
X79000000Y-73050000D03*
X79000000Y-73950000D03*
X81150000Y-73030000D03*
X81150000Y-73930000D03*
D48*
X103960000Y-64070000D03*
X103060000Y-64070000D03*
D49*
X96740000Y-68730000D03*
X96740000Y-69630000D03*
X95340000Y-69640000D03*
X95340000Y-68740000D03*
X95290000Y-70840000D03*
X95290000Y-71740000D03*
X93870000Y-68760000D03*
X93870000Y-69660000D03*
X93880000Y-70840000D03*
X93880000Y-71740000D03*
D48*
X74300000Y-133720000D03*
X73400000Y-133720000D03*
X71630000Y-133720000D03*
X70730000Y-133720000D03*
D50*
X91060000Y-126725000D03*
X89790000Y-126725000D03*
X88520000Y-126725000D03*
X88520000Y-123550000D03*
X89790000Y-123550000D03*
X91060000Y-123550000D03*
X59920000Y-118087500D03*
X58650000Y-118087500D03*
X57380000Y-118087500D03*
X57380000Y-114912500D03*
X58650000Y-114912500D03*
X59920000Y-114912500D03*
D51*
X48000000Y-117970000D03*
X48500000Y-117970000D03*
X49000000Y-117970000D03*
X49500000Y-117970000D03*
X49500000Y-116170000D03*
X49000000Y-116170000D03*
X48500000Y-116170000D03*
X48000000Y-116170000D03*
D52*
X49190000Y-117070000D03*
X48310000Y-117070000D03*
D53*
X74450000Y-61500000D03*
X75400000Y-61500000D03*
X76350000Y-61500000D03*
X76350000Y-59300000D03*
X74450000Y-59300000D03*
D54*
X82205000Y-61295000D03*
X81555000Y-61295000D03*
X80905000Y-61295000D03*
X80255000Y-61295000D03*
X80255000Y-65505000D03*
X80905000Y-65505000D03*
X81555000Y-65505000D03*
X82205000Y-65505000D03*
D55*
X80760000Y-63820000D03*
X81700000Y-63820000D03*
X80760000Y-62980000D03*
X81700000Y-62980000D03*
D53*
X90660000Y-59050000D03*
X89710000Y-59050000D03*
X88760000Y-59050000D03*
X88760000Y-61250000D03*
X90660000Y-61250000D03*
X89710000Y-61250000D03*
D56*
X93750000Y-77950000D03*
X93750000Y-77000000D03*
X93750000Y-76050000D03*
X91550000Y-76050000D03*
X91550000Y-77950000D03*
X91550000Y-77000000D03*
X94900000Y-86550000D03*
X94900000Y-87500000D03*
X94900000Y-88450000D03*
X97100000Y-88450000D03*
X97100000Y-86550000D03*
D54*
X45325000Y-82995000D03*
X44675000Y-82995000D03*
X44025000Y-82995000D03*
X43375000Y-82995000D03*
X43375000Y-87205000D03*
X44025000Y-87205000D03*
X44675000Y-87205000D03*
X45325000Y-87205000D03*
D55*
X43880000Y-85520000D03*
X44820000Y-85520000D03*
X43880000Y-84680000D03*
X44820000Y-84680000D03*
D54*
X105765000Y-83345000D03*
X105115000Y-83345000D03*
X104465000Y-83345000D03*
X103815000Y-83345000D03*
X103815000Y-87555000D03*
X104465000Y-87555000D03*
X105115000Y-87555000D03*
X105765000Y-87555000D03*
D55*
X104320000Y-85870000D03*
X105260000Y-85870000D03*
X104320000Y-85030000D03*
X105260000Y-85030000D03*
D56*
X71400000Y-66550000D03*
X71400000Y-67500000D03*
X71400000Y-68450000D03*
X73600000Y-68450000D03*
X73600000Y-66550000D03*
X73600000Y-67500000D03*
D57*
X92520000Y-106300000D03*
X92520000Y-103900000D03*
X90720000Y-103900000D03*
X90720000Y-106300000D03*
D58*
X64600000Y-67690000D03*
X64600000Y-67290000D03*
X64600000Y-66890000D03*
X64600000Y-66490000D03*
X64600000Y-66090000D03*
X64600000Y-65690000D03*
X64600000Y-65290000D03*
X64600000Y-64890000D03*
X64600000Y-64490000D03*
X64600000Y-64090000D03*
X64600000Y-63690000D03*
X64600000Y-63290000D03*
X64600000Y-62890000D03*
X64600000Y-62490000D03*
X64600000Y-62090000D03*
X64600000Y-61690000D03*
X64600000Y-61290000D03*
X64600000Y-60890000D03*
X64600000Y-60490000D03*
D59*
X63450000Y-59340000D03*
X63050000Y-59340000D03*
X62650000Y-59340000D03*
X62250000Y-59340000D03*
X61850000Y-59340000D03*
X61450000Y-59340000D03*
X61050000Y-59340000D03*
X60650000Y-59340000D03*
X60250000Y-59340000D03*
X59850000Y-59340000D03*
X59450000Y-59340000D03*
X59050000Y-59340000D03*
X58650000Y-59340000D03*
X58250000Y-59340000D03*
X57850000Y-59340000D03*
X57450000Y-59340000D03*
X57050000Y-59340000D03*
X56650000Y-59340000D03*
X56250000Y-59340000D03*
D58*
X55100000Y-60490000D03*
X55100000Y-60890000D03*
X55100000Y-61290000D03*
X55100000Y-61690000D03*
X55100000Y-62090000D03*
X55100000Y-62490000D03*
X55100000Y-62890000D03*
X55100000Y-63290000D03*
X55100000Y-63690000D03*
X55100000Y-64090000D03*
X55100000Y-64490000D03*
X55100000Y-64890000D03*
X55100000Y-65290000D03*
X55100000Y-65690000D03*
X55100000Y-66090000D03*
X55100000Y-66490000D03*
X55100000Y-66890000D03*
X55100000Y-67290000D03*
X55100000Y-67690000D03*
D59*
X56250000Y-68840000D03*
X56650000Y-68840000D03*
X57050000Y-68840000D03*
X57450000Y-68840000D03*
X57850000Y-68840000D03*
X58250000Y-68840000D03*
X58650000Y-68840000D03*
X59050000Y-68840000D03*
X59450000Y-68840000D03*
X59850000Y-68840000D03*
X60250000Y-68840000D03*
X60650000Y-68840000D03*
X61050000Y-68840000D03*
X61450000Y-68840000D03*
X61850000Y-68840000D03*
X62250000Y-68840000D03*
X62650000Y-68840000D03*
X63050000Y-68840000D03*
X63450000Y-68840000D03*
D60*
X59850000Y-64090000D03*
D61*
X52730000Y-91130000D03*
X55130000Y-91130000D03*
X55130000Y-89330000D03*
X52730000Y-89330000D03*
D62*
X56305000Y-78036000D03*
X55035000Y-78036000D03*
X53765000Y-78036000D03*
X52495000Y-78036000D03*
X52495000Y-86164000D03*
X53765000Y-86164000D03*
X55035000Y-86164000D03*
X56305000Y-86164000D03*
D63*
X54400000Y-82100000D03*
D64*
X75000620Y-91000620D03*
X73999860Y-91000620D03*
X72999100Y-91000620D03*
X72000880Y-91000620D03*
X71000120Y-91000620D03*
X69999360Y-91000620D03*
X69001140Y-91000620D03*
X68000380Y-91000620D03*
X66999620Y-91000620D03*
X65998860Y-91000620D03*
X65000640Y-91000620D03*
X63999880Y-91000620D03*
X62999120Y-91000620D03*
X62000900Y-91000620D03*
X61000140Y-91000620D03*
X59999380Y-91000620D03*
X75000620Y-89999860D03*
X75000620Y-88999100D03*
X75000620Y-88000880D03*
X75000620Y-87000120D03*
X75000620Y-85999360D03*
X75000620Y-85001140D03*
X75000620Y-84000380D03*
X75000620Y-82999620D03*
X59999380Y-89999860D03*
X61000140Y-89999860D03*
X62000900Y-89999860D03*
X62999120Y-89999860D03*
X63999880Y-89999860D03*
X65000640Y-89999860D03*
X65998860Y-89999860D03*
X66999620Y-89999860D03*
X68000380Y-89999860D03*
X69001140Y-89999860D03*
X69999360Y-89999860D03*
X71000120Y-89999860D03*
X73999860Y-89999860D03*
X72999100Y-89999860D03*
X72000880Y-89999860D03*
X73999860Y-88999100D03*
X72999100Y-88999100D03*
X72000880Y-88999100D03*
X71000120Y-88999100D03*
X69999360Y-88999100D03*
X69001140Y-88999100D03*
X68000380Y-88999100D03*
X66999620Y-88999100D03*
X73999860Y-88000880D03*
X72999100Y-88000880D03*
X72000880Y-88000880D03*
X71000120Y-88000880D03*
X69999360Y-88000880D03*
X69001140Y-88000880D03*
X68000380Y-88000880D03*
X66999620Y-88000880D03*
X73999860Y-87000120D03*
X72999100Y-87000120D03*
X72000880Y-87000120D03*
X65998860Y-88999100D03*
X65998860Y-88000880D03*
X65000640Y-88999100D03*
X65000640Y-88000880D03*
X63999880Y-88000880D03*
X63999880Y-88999100D03*
X62999120Y-88999100D03*
X62000900Y-88999100D03*
X62000900Y-88000880D03*
X62999120Y-88000880D03*
X61000140Y-88999100D03*
X61000140Y-88000880D03*
X59999380Y-88000880D03*
X59999380Y-88999100D03*
X62999120Y-87000120D03*
X62999120Y-85999360D03*
X62999120Y-85001140D03*
X62000900Y-85001140D03*
X62000900Y-85999360D03*
X62000900Y-87000120D03*
X61000140Y-87000120D03*
X61000140Y-85999360D03*
X61000140Y-85001140D03*
X59999380Y-85001140D03*
X59999380Y-85999360D03*
X59999380Y-87000120D03*
X73999860Y-85999360D03*
X72999100Y-85999360D03*
X72000880Y-85999360D03*
X72000880Y-85001140D03*
X72999100Y-85001140D03*
X73999860Y-85001140D03*
X73999860Y-84000380D03*
X72999100Y-84000380D03*
X72000880Y-84000380D03*
X72000880Y-82999620D03*
X72999100Y-82999620D03*
X73999860Y-82999620D03*
X75000620Y-81998860D03*
X73999860Y-81998860D03*
X72999100Y-81998860D03*
X72000880Y-81998860D03*
X72000880Y-81000640D03*
X72999100Y-81000640D03*
X73999860Y-81000640D03*
X75000620Y-81000640D03*
X75000620Y-79999880D03*
X73999860Y-79999880D03*
X72999100Y-79999880D03*
X72000880Y-79999880D03*
X72000880Y-78999120D03*
X72000880Y-78000900D03*
X72000880Y-77000140D03*
X72999100Y-77000140D03*
X72999100Y-78000900D03*
X72999100Y-78999120D03*
X73999860Y-78999120D03*
X73999860Y-78000900D03*
X73999860Y-77000140D03*
X75000620Y-78999120D03*
X75000620Y-78000900D03*
X75000620Y-77000140D03*
X75000620Y-75999380D03*
X73999860Y-75999380D03*
X72999100Y-75999380D03*
X72000880Y-75999380D03*
X68000380Y-87000120D03*
X69001140Y-87000120D03*
X69999360Y-87000120D03*
X71000120Y-87000120D03*
X71000120Y-85999360D03*
X69999360Y-85999360D03*
X69001140Y-85999360D03*
X68000380Y-85999360D03*
X71000120Y-85001140D03*
X69999360Y-85001140D03*
X69001140Y-85001140D03*
X68000380Y-85001140D03*
X71000120Y-84000380D03*
X69999360Y-84000380D03*
X69001140Y-84000380D03*
X68000380Y-84000380D03*
X71000120Y-82999620D03*
X69999360Y-82999620D03*
X69001140Y-82999620D03*
X68000380Y-82999620D03*
X71000120Y-81998860D03*
X69999360Y-81998860D03*
X69001140Y-81998860D03*
X68000380Y-81998860D03*
X71000120Y-81000640D03*
X69999360Y-81000640D03*
X69001140Y-81000640D03*
X68000380Y-81000640D03*
X71000120Y-79999880D03*
X69999360Y-79999880D03*
X69001140Y-79999880D03*
X71000120Y-78000900D03*
X69999360Y-78000900D03*
X71000120Y-77000140D03*
X69999360Y-77000140D03*
X71000120Y-75999380D03*
X69999360Y-75999380D03*
X68000380Y-79999880D03*
X71000120Y-78999120D03*
X69999360Y-78999120D03*
X69001140Y-78999120D03*
X65000640Y-78000900D03*
X65998860Y-78000900D03*
X66999620Y-78000900D03*
X68000380Y-78000900D03*
X69001140Y-78000900D03*
X69001140Y-77000140D03*
X68000380Y-77000140D03*
X66999620Y-77000140D03*
X65998860Y-77000140D03*
X65000640Y-77000140D03*
X69001140Y-75999380D03*
X68000380Y-75999380D03*
X66999620Y-75999380D03*
X65998860Y-75999380D03*
X65000640Y-75999380D03*
X68000380Y-78999120D03*
X66999620Y-87000120D03*
X65998860Y-87000120D03*
X65000640Y-87000120D03*
X63999880Y-87000120D03*
X63999880Y-78000900D03*
X66999620Y-85999360D03*
X65998860Y-85999360D03*
X65000640Y-85999360D03*
X63999880Y-85999360D03*
X66999620Y-82999620D03*
X63999880Y-85001140D03*
X65000640Y-85001140D03*
X65998860Y-85001140D03*
X66999620Y-85001140D03*
X63999880Y-77000140D03*
X63999880Y-75999380D03*
X66999620Y-84000380D03*
X65998860Y-84000380D03*
X65000640Y-84000380D03*
X63999880Y-84000380D03*
X65998860Y-82999620D03*
X65000640Y-82999620D03*
X63999880Y-82999620D03*
X62999120Y-84000380D03*
X62999120Y-82999620D03*
X62999120Y-81998860D03*
X62999120Y-81000640D03*
X62999120Y-79999880D03*
X62999120Y-78999120D03*
X62999120Y-78000900D03*
X62999120Y-77000140D03*
X62999120Y-75999380D03*
X66999620Y-78999120D03*
X66999620Y-79999880D03*
X66999620Y-81000640D03*
X66999620Y-81998860D03*
X65998860Y-81998860D03*
X65998860Y-81000640D03*
X65998860Y-79999880D03*
X65998860Y-78999120D03*
X62000900Y-75999380D03*
X62000900Y-77000140D03*
X62000900Y-78000900D03*
X62000900Y-78999120D03*
X62000900Y-79999880D03*
X62000900Y-81000640D03*
X62000900Y-81998860D03*
X62000900Y-82999620D03*
X62000900Y-84000380D03*
X61000140Y-84000380D03*
X61000140Y-82999620D03*
X61000140Y-81998860D03*
X61000140Y-81000640D03*
X61000140Y-79999880D03*
X61000140Y-78999120D03*
X61000140Y-78000900D03*
X61000140Y-77000140D03*
X61000140Y-75999380D03*
X65000640Y-78999120D03*
X65000640Y-79999880D03*
X65000640Y-81000640D03*
X65000640Y-81998860D03*
X63999880Y-81998860D03*
X63999880Y-81000640D03*
X63999880Y-79999880D03*
X63999880Y-78999120D03*
X59999380Y-75999380D03*
X59999380Y-77000140D03*
X59999380Y-78000900D03*
X59999380Y-78999120D03*
X59999380Y-79999880D03*
X59999380Y-81000640D03*
X59999380Y-81998860D03*
X59999380Y-82999620D03*
X59999380Y-84000380D03*
D13*
X78000000Y-78000000D03*
X78000000Y-79000000D03*
X78000000Y-80000000D03*
X78000000Y-81000000D03*
X79000000Y-77000000D03*
X79000000Y-78000000D03*
X79000000Y-79000000D03*
X79000000Y-80000000D03*
X79000000Y-81000000D03*
X80000000Y-77000000D03*
X80000000Y-78000000D03*
X80000000Y-79000000D03*
X80000000Y-80000000D03*
X80000000Y-81000000D03*
X81000000Y-77000000D03*
X81000000Y-78000000D03*
X81000000Y-79000000D03*
X81000000Y-80000000D03*
X81000000Y-81000000D03*
X82000000Y-77000000D03*
X82000000Y-78000000D03*
X82000000Y-79000000D03*
X82000000Y-80000000D03*
X82000000Y-81000000D03*
D56*
X92440000Y-70710000D03*
X92440000Y-69760000D03*
X92440000Y-68810000D03*
X90240000Y-68810000D03*
X90240000Y-70710000D03*
X90240000Y-69760000D03*
D65*
X67320000Y-59025000D03*
X69620000Y-59025000D03*
X69620000Y-57175000D03*
X67320000Y-57175000D03*
D49*
X108810000Y-102380000D03*
X108810000Y-101480000D03*
D39*
X93600000Y-74330000D03*
X91600000Y-74330000D03*
D16*
X75000000Y-55550000D03*
X81000000Y-55550000D03*
X87000000Y-55550000D03*
X93000000Y-55550000D03*
X69000000Y-55550000D03*
X63000000Y-55550000D03*
X57000000Y-55550000D03*
X75000000Y-93450000D03*
X69000000Y-93450000D03*
X63000000Y-93450000D03*
X57000000Y-93450000D03*
X81000000Y-93450000D03*
X87000000Y-93450000D03*
X93000000Y-93450000D03*
D18*
X49700000Y-74500000D03*
X49700000Y-68500000D03*
X49700000Y-62500000D03*
X49700000Y-80500000D03*
X49700000Y-86500000D03*
X100300000Y-86500000D03*
X100300000Y-80500000D03*
X100300000Y-74500000D03*
X100300000Y-68500000D03*
X100300000Y-62500000D03*
D66*
X98875000Y-55550000D03*
D67*
X100300000Y-56725000D03*
X100300000Y-92275000D03*
D66*
X98875000Y-93450000D03*
X51125000Y-93450000D03*
X51125000Y-55550000D03*
D67*
X49700000Y-92275000D03*
X49700000Y-56725000D03*
D30*
X41868500Y-140810000D03*
X50631500Y-140810000D03*
D31*
X46250000Y-140810000D03*
D30*
X54618500Y-140810000D03*
X63381500Y-140810000D03*
D31*
X59000000Y-140810000D03*
D30*
X86118500Y-140810000D03*
X94881500Y-140810000D03*
D31*
X90500000Y-140810000D03*
D21*
X108450000Y-119900000D03*
X108450000Y-121400000D03*
D30*
X112168500Y-140810000D03*
X120931500Y-140810000D03*
D31*
X116550000Y-140810000D03*
D14*
X102900000Y-121450000D03*
X102900000Y-122550000D03*
D10*
G36*
X41265355Y-128141091D02*
X41618909Y-128494645D01*
X41194645Y-128918909D01*
X40841091Y-128565355D01*
X41265355Y-128141091D01*
X41265355Y-128141091D01*
G37*
G36*
X40487537Y-128918909D02*
X40841091Y-129272463D01*
X40416827Y-129696727D01*
X40063273Y-129343173D01*
X40487537Y-128918909D01*
X40487537Y-128918909D01*
G37*
D14*
X105400000Y-119900000D03*
X105400000Y-121000000D03*
X106750000Y-119900000D03*
X106750000Y-121000000D03*
X41940000Y-120860000D03*
X41940000Y-121960000D03*
X102900000Y-112200000D03*
X102900000Y-113300000D03*
X44240000Y-115750000D03*
X44240000Y-114650000D03*
X41940000Y-110200000D03*
X41940000Y-109100000D03*
D12*
X73200000Y-113350000D03*
X71700000Y-113350000D03*
D14*
X44240000Y-111550000D03*
X44240000Y-112650000D03*
D29*
X70400000Y-120900000D03*
X69300000Y-120900000D03*
X54100000Y-101050000D03*
X53000000Y-101050000D03*
X68750000Y-99950000D03*
X67650000Y-99950000D03*
X68750000Y-101150000D03*
X67650000Y-101150000D03*
D42*
X41930000Y-126330000D03*
X41930000Y-124530000D03*
D43*
X41930000Y-125430000D03*
D10*
G36*
X44946931Y-104853987D02*
X44756013Y-104663069D01*
X45180277Y-104238805D01*
X45371195Y-104429723D01*
X44946931Y-104853987D01*
X44946931Y-104853987D01*
G37*
G36*
X46219723Y-103581195D02*
X46028805Y-103390277D01*
X46453069Y-102966013D01*
X46643987Y-103156931D01*
X46219723Y-103581195D01*
X46219723Y-103581195D01*
G37*
G36*
X46124264Y-104687817D02*
X44922183Y-103485736D01*
X45275736Y-103132183D01*
X46477817Y-104334264D01*
X46124264Y-104687817D01*
X46124264Y-104687817D01*
G37*
D29*
X102900000Y-119900000D03*
X104000000Y-119900000D03*
X41920000Y-123270000D03*
X43020000Y-123270000D03*
D14*
X41940000Y-118310000D03*
X41940000Y-117210000D03*
D29*
X41940000Y-115760000D03*
X43040000Y-115760000D03*
X43040000Y-111400000D03*
X41940000Y-111400000D03*
D10*
G36*
X46852182Y-102325736D02*
X47205736Y-101972182D01*
X47630000Y-102396446D01*
X47276446Y-102750000D01*
X46852182Y-102325736D01*
X46852182Y-102325736D01*
G37*
G36*
X47630000Y-103103554D02*
X47983554Y-102750000D01*
X48407818Y-103174264D01*
X48054264Y-103527818D01*
X47630000Y-103103554D01*
X47630000Y-103103554D01*
G37*
D49*
X45490000Y-113200000D03*
X45490000Y-114100000D03*
D27*
X102898340Y-115048860D03*
X102898340Y-116550000D03*
X102898340Y-118051140D03*
D28*
X105849820Y-116550000D03*
D10*
G36*
X104375350Y-117550760D02*
X103626050Y-117050380D01*
X103626050Y-116049620D01*
X104375350Y-115549240D01*
X104375350Y-117550760D01*
X104375350Y-117550760D01*
G37*
D51*
X41440000Y-114450000D03*
X41940000Y-114450000D03*
X42440000Y-114450000D03*
X42940000Y-114450000D03*
X42940000Y-112650000D03*
X42440000Y-112650000D03*
X41940000Y-112650000D03*
X41440000Y-112650000D03*
D52*
X42630000Y-113550000D03*
X41750000Y-113550000D03*
D68*
X61050000Y-107090000D03*
X61700000Y-107090000D03*
X62350000Y-107090000D03*
X62350000Y-105790000D03*
X61700000Y-105790000D03*
X61050000Y-105790000D03*
X60380000Y-101030000D03*
X61030000Y-101030000D03*
X61680000Y-101030000D03*
X61680000Y-99730000D03*
X61030000Y-99730000D03*
X60380000Y-99730000D03*
D69*
X77350000Y-95950000D03*
X77350000Y-96600000D03*
X77350000Y-97250000D03*
X78650000Y-97250000D03*
X78650000Y-96600000D03*
X78650000Y-95950000D03*
X78630000Y-110220000D03*
X78630000Y-109570000D03*
X78630000Y-108920000D03*
X77330000Y-108920000D03*
X77330000Y-109570000D03*
X77330000Y-110220000D03*
D21*
X82150000Y-108000000D03*
X82150000Y-109500000D03*
D48*
X57350000Y-123500000D03*
X58250000Y-123500000D03*
D49*
X57350000Y-121450000D03*
X57350000Y-122350000D03*
D48*
X57350000Y-120300000D03*
X58250000Y-120300000D03*
D49*
X56530000Y-108000000D03*
X56530000Y-107100000D03*
D48*
X58600000Y-107100000D03*
X57700000Y-107100000D03*
D49*
X59750000Y-108000000D03*
X59750000Y-107100000D03*
X55730000Y-101950000D03*
X55730000Y-101050000D03*
D48*
X57770000Y-101030000D03*
X56870000Y-101030000D03*
D49*
X58910000Y-101930000D03*
X58910000Y-101030000D03*
D53*
X105180000Y-102350000D03*
X106130000Y-102350000D03*
X107080000Y-102350000D03*
X107080000Y-100150000D03*
X105180000Y-100150000D03*
D12*
X105250000Y-98530000D03*
X106750000Y-98530000D03*
D70*
X39175000Y-70850000D03*
X37725000Y-70850000D03*
X37725000Y-74450000D03*
X39175000Y-74450000D03*
D71*
X39350000Y-72650000D03*
X37550000Y-72650000D03*
M02*
