G04 #@! TF.FileFunction,Soldermask,Bot*
%FSLAX46Y46*%
G04 Gerber Fmt 4.6, Leading zero omitted, Abs format (unit mm)*
G04 Created by KiCad (PCBNEW 4.0.4-stable) date Sun Nov  6 13:49:44 2016*
%MOMM*%
%LPD*%
G01*
G04 APERTURE LIST*
%ADD10C,0.100000*%
%ADD11R,0.600000X0.500000*%
%ADD12R,0.500000X0.600000*%
%ADD13R,1.000000X3.800000*%
%ADD14R,3.800000X1.000000*%
%ADD15R,1.000000X3.850000*%
%ADD16R,3.350000X1.000000*%
%ADD17R,2.413000X5.080000*%
%ADD18O,0.900000X1.800000*%
%ADD19R,1.727200X2.032000*%
%ADD20O,1.727200X2.032000*%
%ADD21R,0.800000X0.750000*%
%ADD22R,0.750000X0.800000*%
%ADD23R,1.000000X1.250000*%
%ADD24R,1.000000X1.600000*%
%ADD25R,1.250000X1.000000*%
%ADD26R,1.350000X1.350000*%
%ADD27C,1.350000*%
%ADD28R,0.400000X0.600000*%
%ADD29R,0.600000X0.400000*%
%ADD30C,0.700000*%
G04 APERTURE END LIST*
D10*
D11*
X69380000Y-100980000D03*
X68280000Y-100980000D03*
D12*
X71160000Y-100950000D03*
X71160000Y-99850000D03*
D13*
X50850000Y-92200000D03*
X50850000Y-98200000D03*
X50850000Y-104200000D03*
X50850000Y-110200000D03*
X50850000Y-86200000D03*
X50850000Y-80200000D03*
X50850000Y-74200000D03*
X88750000Y-92200000D03*
X88750000Y-86200000D03*
X88750000Y-80200000D03*
X88750000Y-74200000D03*
X88750000Y-98200000D03*
X88750000Y-104200000D03*
X88750000Y-110200000D03*
D14*
X69800000Y-66900000D03*
X63800000Y-66900000D03*
X57800000Y-66900000D03*
X75800000Y-66900000D03*
X81800000Y-66900000D03*
X81800000Y-117500000D03*
X75800000Y-117500000D03*
X69800000Y-117500000D03*
X63800000Y-117500000D03*
X57800000Y-117500000D03*
D15*
X50850000Y-116075000D03*
D16*
X52025000Y-117500000D03*
X87575000Y-117500000D03*
D15*
X88750000Y-116075000D03*
X88750000Y-68325000D03*
X50850000Y-68325000D03*
D16*
X87575000Y-66900000D03*
X52025000Y-66900000D03*
D17*
X106131500Y-51690000D03*
X97368500Y-51690000D03*
X99368500Y-140810000D03*
X108131500Y-140810000D03*
X29168500Y-140810000D03*
X37931500Y-140810000D03*
D18*
X65450000Y-46500000D03*
X52900000Y-46500000D03*
D19*
X81000000Y-137250000D03*
D20*
X78460000Y-137250000D03*
X75920000Y-137250000D03*
X73380000Y-137250000D03*
X70840000Y-137250000D03*
X68300000Y-137250000D03*
D11*
X72190000Y-104210000D03*
X71090000Y-104210000D03*
D21*
X67680000Y-97740000D03*
X69180000Y-97740000D03*
X67690000Y-99480000D03*
X69190000Y-99480000D03*
D11*
X72840000Y-105590000D03*
X71740000Y-105590000D03*
D21*
X91500000Y-101410000D03*
X93000000Y-101410000D03*
D11*
X71980000Y-102590000D03*
X70880000Y-102590000D03*
D22*
X66960000Y-103080000D03*
X66960000Y-101580000D03*
D11*
X81110000Y-101260000D03*
X82210000Y-101260000D03*
X73580000Y-109040000D03*
X74680000Y-109040000D03*
X70260000Y-63050000D03*
X71360000Y-63050000D03*
X56120000Y-59180000D03*
X57220000Y-59180000D03*
X53750000Y-64400000D03*
X52650000Y-64400000D03*
X59250000Y-60800000D03*
X60350000Y-60800000D03*
D23*
X53430000Y-59070000D03*
X51430000Y-59070000D03*
D22*
X64520000Y-62460000D03*
X64520000Y-60960000D03*
D23*
X54710000Y-79990000D03*
X52710000Y-79990000D03*
D11*
X64910000Y-75990000D03*
X66010000Y-75990000D03*
D12*
X61990000Y-76470000D03*
X61990000Y-75370000D03*
X56270000Y-86150000D03*
X56270000Y-85050000D03*
D23*
X54710000Y-77910000D03*
X52710000Y-77910000D03*
D11*
X68960000Y-78000000D03*
X70060000Y-78000000D03*
D12*
X70290000Y-80940000D03*
X70290000Y-82040000D03*
D24*
X62150000Y-72900000D03*
X65150000Y-72900000D03*
D25*
X75690000Y-73770000D03*
X75690000Y-71770000D03*
D12*
X70040000Y-90980000D03*
X70040000Y-92080000D03*
D11*
X65950000Y-85090000D03*
X67050000Y-85090000D03*
D25*
X60480000Y-86030000D03*
X60480000Y-84030000D03*
X62960000Y-86040000D03*
X62960000Y-84040000D03*
D11*
X67960000Y-82210000D03*
X69060000Y-82210000D03*
X65920000Y-87010000D03*
X67020000Y-87010000D03*
X67050000Y-83890000D03*
X65950000Y-83890000D03*
X68950000Y-88020000D03*
X70050000Y-88020000D03*
X69000000Y-86010000D03*
X70100000Y-86010000D03*
X72940000Y-89990000D03*
X74040000Y-89990000D03*
X70060000Y-84010000D03*
X68960000Y-84010000D03*
D12*
X71990000Y-87010000D03*
X71990000Y-88110000D03*
X68350000Y-81070000D03*
X68350000Y-79970000D03*
D11*
X76200000Y-85960000D03*
X77300000Y-85960000D03*
D21*
X80750000Y-81000000D03*
X82250000Y-81000000D03*
D11*
X81070000Y-75670000D03*
X79970000Y-75670000D03*
X81060000Y-76990000D03*
X79960000Y-76990000D03*
D26*
X108750000Y-77500000D03*
D27*
X108750000Y-75500000D03*
X108750000Y-73500000D03*
X108750000Y-71500000D03*
X108750000Y-69500000D03*
X108750000Y-67500000D03*
X108750000Y-65500000D03*
X106750000Y-77500000D03*
X106750000Y-75500000D03*
X106750000Y-73500000D03*
X106750000Y-71500000D03*
X106750000Y-69500000D03*
X106750000Y-67500000D03*
X106750000Y-65500000D03*
D28*
X86540000Y-62910000D03*
X87440000Y-62910000D03*
D29*
X73510000Y-106690000D03*
X73510000Y-107590000D03*
D28*
X69320000Y-103110000D03*
X68420000Y-103110000D03*
X70360000Y-61680000D03*
X71260000Y-61680000D03*
X67080000Y-60690000D03*
X67980000Y-60690000D03*
X70250000Y-64350000D03*
X71150000Y-64350000D03*
X67570000Y-64680000D03*
X68470000Y-64680000D03*
X67570000Y-63380000D03*
X68470000Y-63380000D03*
X67570000Y-62080000D03*
X68470000Y-62080000D03*
D29*
X64670000Y-83110000D03*
X64670000Y-84010000D03*
X56470000Y-80780000D03*
X56470000Y-81680000D03*
D28*
X66870000Y-82210000D03*
X65970000Y-82210000D03*
D29*
X64650000Y-80040000D03*
X64650000Y-80940000D03*
X65940000Y-80050000D03*
X65940000Y-80950000D03*
X67110000Y-80990000D03*
X67110000Y-80090000D03*
D17*
X41868500Y-140810000D03*
X50631500Y-140810000D03*
X54618500Y-140810000D03*
X63381500Y-140810000D03*
X86118500Y-140810000D03*
X94881500Y-140810000D03*
X112168500Y-140810000D03*
X120931500Y-140810000D03*
D30*
X39350000Y-72650000D03*
X37550000Y-72650000D03*
M02*
