G04 #@! TF.FileFunction,Legend,Top*
%FSLAX46Y46*%
G04 Gerber Fmt 4.6, Leading zero omitted, Abs format (unit mm)*
G04 Created by KiCad (PCBNEW 4.0.4-stable) date Sun Nov  6 13:49:44 2016*
%MOMM*%
%LPD*%
G01*
G04 APERTURE LIST*
%ADD10C,0.100000*%
%ADD11C,0.200000*%
%ADD12C,0.300000*%
%ADD13C,0.150000*%
G04 APERTURE END LIST*
D10*
D11*
X67976903Y-130157233D02*
X67726902Y-130157233D01*
X67976903Y-130157233D02*
G75*
G03X67976903Y-130157233I-150000J0D01*
G01*
X67826903Y-128107233D02*
X67576903Y-127607233D01*
X68076903Y-127607233D02*
X67826903Y-128107233D01*
X68076903Y-127607233D02*
X67826903Y-129607232D01*
X67576903Y-127607233D02*
X68076903Y-127607233D01*
X67826903Y-129607232D02*
X67576903Y-127607233D01*
X67826903Y-127607233D02*
X67826903Y-129607232D01*
X67826903Y-126357233D02*
X70076904Y-130857233D01*
X65576903Y-130857233D02*
X67826903Y-126357233D01*
X70076904Y-130857233D02*
X65576903Y-130857233D01*
D12*
X71964286Y-128153571D02*
X71464286Y-127439286D01*
X71107143Y-128153571D02*
X71107143Y-126653571D01*
X71678571Y-126653571D01*
X71821429Y-126725000D01*
X71892857Y-126796429D01*
X71964286Y-126939286D01*
X71964286Y-127153571D01*
X71892857Y-127296429D01*
X71821429Y-127367857D01*
X71678571Y-127439286D01*
X71107143Y-127439286D01*
X73107143Y-127367857D02*
X72607143Y-127367857D01*
X72607143Y-128153571D02*
X72607143Y-126653571D01*
X73321429Y-126653571D01*
X75035714Y-128153571D02*
X75035714Y-126653571D01*
X75750000Y-127153571D02*
X75750000Y-128153571D01*
X75750000Y-127296429D02*
X75821428Y-127225000D01*
X75964286Y-127153571D01*
X76178571Y-127153571D01*
X76321428Y-127225000D01*
X76392857Y-127367857D01*
X76392857Y-128153571D01*
X77107143Y-127153571D02*
X77107143Y-128653571D01*
X77107143Y-127225000D02*
X77250000Y-127153571D01*
X77535714Y-127153571D01*
X77678571Y-127225000D01*
X77750000Y-127296429D01*
X77821429Y-127439286D01*
X77821429Y-127867857D01*
X77750000Y-128010714D01*
X77678571Y-128082143D01*
X77535714Y-128153571D01*
X77250000Y-128153571D01*
X77107143Y-128082143D01*
X79107143Y-127153571D02*
X79107143Y-128153571D01*
X78464286Y-127153571D02*
X78464286Y-127939286D01*
X78535714Y-128082143D01*
X78678572Y-128153571D01*
X78892857Y-128153571D01*
X79035714Y-128082143D01*
X79107143Y-128010714D01*
X79607143Y-127153571D02*
X80178572Y-127153571D01*
X79821429Y-126653571D02*
X79821429Y-127939286D01*
X79892857Y-128082143D01*
X80035715Y-128153571D01*
X80178572Y-128153571D01*
X80607143Y-128082143D02*
X80750000Y-128153571D01*
X81035715Y-128153571D01*
X81178572Y-128082143D01*
X81250000Y-127939286D01*
X81250000Y-127867857D01*
X81178572Y-127725000D01*
X81035715Y-127653571D01*
X80821429Y-127653571D01*
X80678572Y-127582143D01*
X80607143Y-127439286D01*
X80607143Y-127367857D01*
X80678572Y-127225000D01*
X80821429Y-127153571D01*
X81035715Y-127153571D01*
X81178572Y-127225000D01*
X71035714Y-129346429D02*
X71107143Y-129275000D01*
X71250000Y-129203571D01*
X71607143Y-129203571D01*
X71750000Y-129275000D01*
X71821429Y-129346429D01*
X71892857Y-129489286D01*
X71892857Y-129632143D01*
X71821429Y-129846429D01*
X70964286Y-130703571D01*
X71892857Y-130703571D01*
X72392857Y-129203571D02*
X73392857Y-129203571D01*
X72750000Y-130703571D01*
X74607142Y-130703571D02*
X74607142Y-129203571D01*
X74607142Y-130632143D02*
X74464285Y-130703571D01*
X74178571Y-130703571D01*
X74035713Y-130632143D01*
X73964285Y-130560714D01*
X73892856Y-130417857D01*
X73892856Y-129989286D01*
X73964285Y-129846429D01*
X74035713Y-129775000D01*
X74178571Y-129703571D01*
X74464285Y-129703571D01*
X74607142Y-129775000D01*
X75821428Y-129917857D02*
X76035714Y-129989286D01*
X76107142Y-130060714D01*
X76178571Y-130203571D01*
X76178571Y-130417857D01*
X76107142Y-130560714D01*
X76035714Y-130632143D01*
X75892856Y-130703571D01*
X75321428Y-130703571D01*
X75321428Y-129203571D01*
X75821428Y-129203571D01*
X75964285Y-129275000D01*
X76035714Y-129346429D01*
X76107142Y-129489286D01*
X76107142Y-129632143D01*
X76035714Y-129775000D01*
X75964285Y-129846429D01*
X75821428Y-129917857D01*
X75321428Y-129917857D01*
X76821428Y-130703571D02*
X76821428Y-129703571D01*
X76821428Y-129846429D02*
X76892856Y-129775000D01*
X77035714Y-129703571D01*
X77249999Y-129703571D01*
X77392856Y-129775000D01*
X77464285Y-129917857D01*
X77464285Y-130703571D01*
X77464285Y-129917857D02*
X77535714Y-129775000D01*
X77678571Y-129703571D01*
X77892856Y-129703571D01*
X78035714Y-129775000D01*
X78107142Y-129917857D01*
X78107142Y-130703571D01*
X79964285Y-130703571D02*
X79964285Y-129703571D01*
X79964285Y-129846429D02*
X80035713Y-129775000D01*
X80178571Y-129703571D01*
X80392856Y-129703571D01*
X80535713Y-129775000D01*
X80607142Y-129917857D01*
X80607142Y-130703571D01*
X80607142Y-129917857D02*
X80678571Y-129775000D01*
X80821428Y-129703571D01*
X81035713Y-129703571D01*
X81178571Y-129775000D01*
X81249999Y-129917857D01*
X81249999Y-130703571D01*
X82607142Y-130703571D02*
X82607142Y-129917857D01*
X82535713Y-129775000D01*
X82392856Y-129703571D01*
X82107142Y-129703571D01*
X81964285Y-129775000D01*
X82607142Y-130632143D02*
X82464285Y-130703571D01*
X82107142Y-130703571D01*
X81964285Y-130632143D01*
X81892856Y-130489286D01*
X81892856Y-130346429D01*
X81964285Y-130203571D01*
X82107142Y-130132143D01*
X82464285Y-130132143D01*
X82607142Y-130060714D01*
X83178571Y-130703571D02*
X83964285Y-129703571D01*
X83178571Y-129703571D02*
X83964285Y-130703571D01*
X45541429Y-47984286D02*
X46255714Y-47484286D01*
X45541429Y-47127143D02*
X47041429Y-47127143D01*
X47041429Y-47698571D01*
X46970000Y-47841429D01*
X46898571Y-47912857D01*
X46755714Y-47984286D01*
X46541429Y-47984286D01*
X46398571Y-47912857D01*
X46327143Y-47841429D01*
X46255714Y-47698571D01*
X46255714Y-47127143D01*
X46327143Y-49127143D02*
X46327143Y-48627143D01*
X45541429Y-48627143D02*
X47041429Y-48627143D01*
X47041429Y-49341429D01*
X47041429Y-49698571D02*
X47041429Y-50555714D01*
X45541429Y-50127143D02*
X47041429Y-50127143D01*
X45541429Y-51270000D02*
X45612857Y-51127142D01*
X45684286Y-51055714D01*
X45827143Y-50984285D01*
X46255714Y-50984285D01*
X46398571Y-51055714D01*
X46470000Y-51127142D01*
X46541429Y-51270000D01*
X46541429Y-51484285D01*
X46470000Y-51627142D01*
X46398571Y-51698571D01*
X46255714Y-51770000D01*
X45827143Y-51770000D01*
X45684286Y-51698571D01*
X45612857Y-51627142D01*
X45541429Y-51484285D01*
X45541429Y-51270000D01*
X45541429Y-52627143D02*
X45612857Y-52484285D01*
X45684286Y-52412857D01*
X45827143Y-52341428D01*
X46255714Y-52341428D01*
X46398571Y-52412857D01*
X46470000Y-52484285D01*
X46541429Y-52627143D01*
X46541429Y-52841428D01*
X46470000Y-52984285D01*
X46398571Y-53055714D01*
X46255714Y-53127143D01*
X45827143Y-53127143D01*
X45684286Y-53055714D01*
X45612857Y-52984285D01*
X45541429Y-52841428D01*
X45541429Y-52627143D01*
X45541429Y-53984286D02*
X45612857Y-53841428D01*
X45755714Y-53770000D01*
X47041429Y-53770000D01*
X47041429Y-55555714D02*
X47041429Y-56555714D01*
X45541429Y-55912857D01*
X47041429Y-57412856D02*
X47041429Y-57555713D01*
X46970000Y-57698570D01*
X46898571Y-57769999D01*
X46755714Y-57841428D01*
X46470000Y-57912856D01*
X46112857Y-57912856D01*
X45827143Y-57841428D01*
X45684286Y-57769999D01*
X45612857Y-57698570D01*
X45541429Y-57555713D01*
X45541429Y-57412856D01*
X45612857Y-57269999D01*
X45684286Y-57198570D01*
X45827143Y-57127142D01*
X46112857Y-57055713D01*
X46470000Y-57055713D01*
X46755714Y-57127142D01*
X46898571Y-57198570D01*
X46970000Y-57269999D01*
X47041429Y-57412856D01*
X45541429Y-58555713D02*
X47041429Y-58555713D01*
X45970000Y-59055713D01*
X47041429Y-59555713D01*
X45541429Y-59555713D01*
X45541429Y-60269999D02*
X47041429Y-60269999D01*
X46327143Y-60269999D02*
X46327143Y-61127142D01*
X45541429Y-61127142D02*
X47041429Y-61127142D01*
X46541429Y-61698571D02*
X46541429Y-62484285D01*
X45541429Y-61698571D01*
X45541429Y-62484285D01*
X46112857Y-64198571D02*
X46112857Y-65341428D01*
X47041429Y-67841428D02*
X47041429Y-67555714D01*
X46970000Y-67412857D01*
X46898571Y-67341428D01*
X46684286Y-67198571D01*
X46398571Y-67127142D01*
X45827143Y-67127142D01*
X45684286Y-67198571D01*
X45612857Y-67269999D01*
X45541429Y-67412857D01*
X45541429Y-67698571D01*
X45612857Y-67841428D01*
X45684286Y-67912857D01*
X45827143Y-67984285D01*
X46184286Y-67984285D01*
X46327143Y-67912857D01*
X46398571Y-67841428D01*
X46470000Y-67698571D01*
X46470000Y-67412857D01*
X46398571Y-67269999D01*
X46327143Y-67198571D01*
X46184286Y-67127142D01*
X46970000Y-69412856D02*
X47041429Y-69269999D01*
X47041429Y-69055713D01*
X46970000Y-68841428D01*
X46827143Y-68698570D01*
X46684286Y-68627142D01*
X46398571Y-68555713D01*
X46184286Y-68555713D01*
X45898571Y-68627142D01*
X45755714Y-68698570D01*
X45612857Y-68841428D01*
X45541429Y-69055713D01*
X45541429Y-69198570D01*
X45612857Y-69412856D01*
X45684286Y-69484285D01*
X46184286Y-69484285D01*
X46184286Y-69198570D01*
X45541429Y-70127142D02*
X47041429Y-70127142D01*
X46327143Y-70127142D02*
X46327143Y-70984285D01*
X45541429Y-70984285D02*
X47041429Y-70984285D01*
X46541429Y-71555714D02*
X46541429Y-72341428D01*
X45541429Y-71555714D01*
X45541429Y-72341428D01*
X45612857Y-73984285D02*
X45541429Y-74198571D01*
X45541429Y-74555714D01*
X45612857Y-74698571D01*
X45684286Y-74770000D01*
X45827143Y-74841428D01*
X45970000Y-74841428D01*
X46112857Y-74770000D01*
X46184286Y-74698571D01*
X46255714Y-74555714D01*
X46327143Y-74270000D01*
X46398571Y-74127142D01*
X46470000Y-74055714D01*
X46612857Y-73984285D01*
X46755714Y-73984285D01*
X46898571Y-74055714D01*
X46970000Y-74127142D01*
X47041429Y-74270000D01*
X47041429Y-74627142D01*
X46970000Y-74841428D01*
X45541429Y-75484285D02*
X47041429Y-75484285D01*
X47041429Y-75841428D01*
X46970000Y-76055713D01*
X46827143Y-76198571D01*
X46684286Y-76269999D01*
X46398571Y-76341428D01*
X46184286Y-76341428D01*
X45898571Y-76269999D01*
X45755714Y-76198571D01*
X45612857Y-76055713D01*
X45541429Y-75841428D01*
X45541429Y-75484285D01*
X45541429Y-77841428D02*
X46255714Y-77341428D01*
X45541429Y-76984285D02*
X47041429Y-76984285D01*
X47041429Y-77555713D01*
X46970000Y-77698571D01*
X46898571Y-77769999D01*
X46755714Y-77841428D01*
X46541429Y-77841428D01*
X46398571Y-77769999D01*
X46327143Y-77698571D01*
X46255714Y-77555713D01*
X46255714Y-76984285D01*
X42991429Y-47770000D02*
X44491429Y-47770000D01*
X43062857Y-47770000D02*
X42991429Y-47627143D01*
X42991429Y-47341429D01*
X43062857Y-47198571D01*
X43134286Y-47127143D01*
X43277143Y-47055714D01*
X43705714Y-47055714D01*
X43848571Y-47127143D01*
X43920000Y-47198571D01*
X43991429Y-47341429D01*
X43991429Y-47627143D01*
X43920000Y-47770000D01*
X43062857Y-48412857D02*
X42991429Y-48555714D01*
X42991429Y-48841429D01*
X43062857Y-48984286D01*
X43205714Y-49055714D01*
X43277143Y-49055714D01*
X43420000Y-48984286D01*
X43491429Y-48841429D01*
X43491429Y-48627143D01*
X43562857Y-48484286D01*
X43705714Y-48412857D01*
X43777143Y-48412857D01*
X43920000Y-48484286D01*
X43991429Y-48627143D01*
X43991429Y-48841429D01*
X43920000Y-48984286D01*
X44491429Y-49984286D02*
X44491429Y-50127143D01*
X44420000Y-50270000D01*
X44348571Y-50341429D01*
X44205714Y-50412858D01*
X43920000Y-50484286D01*
X43562857Y-50484286D01*
X43277143Y-50412858D01*
X43134286Y-50341429D01*
X43062857Y-50270000D01*
X42991429Y-50127143D01*
X42991429Y-49984286D01*
X43062857Y-49841429D01*
X43134286Y-49770000D01*
X43277143Y-49698572D01*
X43562857Y-49627143D01*
X43920000Y-49627143D01*
X44205714Y-49698572D01*
X44348571Y-49770000D01*
X44420000Y-49841429D01*
X44491429Y-49984286D01*
X43134286Y-51127143D02*
X43062857Y-51198571D01*
X42991429Y-51127143D01*
X43062857Y-51055714D01*
X43134286Y-51127143D01*
X42991429Y-51127143D01*
X42991429Y-51841429D02*
X43991429Y-51841429D01*
X43848571Y-51841429D02*
X43920000Y-51912857D01*
X43991429Y-52055715D01*
X43991429Y-52270000D01*
X43920000Y-52412857D01*
X43777143Y-52484286D01*
X42991429Y-52484286D01*
X43777143Y-52484286D02*
X43920000Y-52555715D01*
X43991429Y-52698572D01*
X43991429Y-52912857D01*
X43920000Y-53055715D01*
X43777143Y-53127143D01*
X42991429Y-53127143D01*
X43062857Y-54412857D02*
X42991429Y-54270000D01*
X42991429Y-53984286D01*
X43062857Y-53841429D01*
X43205714Y-53770000D01*
X43777143Y-53770000D01*
X43920000Y-53841429D01*
X43991429Y-53984286D01*
X43991429Y-54270000D01*
X43920000Y-54412857D01*
X43777143Y-54484286D01*
X43634286Y-54484286D01*
X43491429Y-53770000D01*
X44562857Y-56198571D02*
X42634286Y-54912857D01*
X43062857Y-56627143D02*
X42991429Y-56770000D01*
X42991429Y-57055715D01*
X43062857Y-57198572D01*
X43205714Y-57270000D01*
X43277143Y-57270000D01*
X43420000Y-57198572D01*
X43491429Y-57055715D01*
X43491429Y-56841429D01*
X43562857Y-56698572D01*
X43705714Y-56627143D01*
X43777143Y-56627143D01*
X43920000Y-56698572D01*
X43991429Y-56841429D01*
X43991429Y-57055715D01*
X43920000Y-57198572D01*
X42991429Y-58555715D02*
X44491429Y-58555715D01*
X43062857Y-58555715D02*
X42991429Y-58412858D01*
X42991429Y-58127144D01*
X43062857Y-57984286D01*
X43134286Y-57912858D01*
X43277143Y-57841429D01*
X43705714Y-57841429D01*
X43848571Y-57912858D01*
X43920000Y-57984286D01*
X43991429Y-58127144D01*
X43991429Y-58412858D01*
X43920000Y-58555715D01*
X42991429Y-59270001D02*
X43991429Y-59270001D01*
X43705714Y-59270001D02*
X43848571Y-59341429D01*
X43920000Y-59412858D01*
X43991429Y-59555715D01*
X43991429Y-59698572D01*
X40441429Y-47984286D02*
X41155714Y-47484286D01*
X40441429Y-47127143D02*
X41941429Y-47127143D01*
X41941429Y-47698571D01*
X41870000Y-47841429D01*
X41798571Y-47912857D01*
X41655714Y-47984286D01*
X41441429Y-47984286D01*
X41298571Y-47912857D01*
X41227143Y-47841429D01*
X41155714Y-47698571D01*
X41155714Y-47127143D01*
X40512857Y-49198571D02*
X40441429Y-49055714D01*
X40441429Y-48770000D01*
X40512857Y-48627143D01*
X40655714Y-48555714D01*
X41227143Y-48555714D01*
X41370000Y-48627143D01*
X41441429Y-48770000D01*
X41441429Y-49055714D01*
X41370000Y-49198571D01*
X41227143Y-49270000D01*
X41084286Y-49270000D01*
X40941429Y-48555714D01*
X41441429Y-49770000D02*
X40441429Y-50127143D01*
X41441429Y-50484285D01*
X40441429Y-52984285D02*
X40441429Y-52127142D01*
X40441429Y-52555714D02*
X41941429Y-52555714D01*
X41727143Y-52412857D01*
X41584286Y-52269999D01*
X41512857Y-52127142D01*
X40584286Y-53627142D02*
X40512857Y-53698570D01*
X40441429Y-53627142D01*
X40512857Y-53555713D01*
X40584286Y-53627142D01*
X40441429Y-53627142D01*
X41941429Y-54627142D02*
X41941429Y-54769999D01*
X41870000Y-54912856D01*
X41798571Y-54984285D01*
X41655714Y-55055714D01*
X41370000Y-55127142D01*
X41012857Y-55127142D01*
X40727143Y-55055714D01*
X40584286Y-54984285D01*
X40512857Y-54912856D01*
X40441429Y-54769999D01*
X40441429Y-54627142D01*
X40512857Y-54484285D01*
X40584286Y-54412856D01*
X40727143Y-54341428D01*
X41012857Y-54269999D01*
X41370000Y-54269999D01*
X41655714Y-54341428D01*
X41798571Y-54412856D01*
X41870000Y-54484285D01*
X41941429Y-54627142D01*
D13*
X107129160Y-57109760D02*
X107080900Y-57109760D01*
X104330180Y-57810800D02*
X104330180Y-57109760D01*
X104330180Y-57109760D02*
X104579100Y-57109760D01*
X107129160Y-57109760D02*
X107329820Y-57109760D01*
X107329820Y-57109760D02*
X107329820Y-57810800D01*
X58189810Y-126618439D02*
X57836257Y-126971992D01*
X58508008Y-127643743D02*
X58861561Y-127290190D01*
X45360000Y-88150000D02*
X46060000Y-88150000D01*
X46060000Y-89350000D02*
X45360000Y-89350000D01*
X71100000Y-98000000D02*
X70500000Y-98600000D01*
X70500000Y-98600000D02*
X70500000Y-108000000D01*
X70500000Y-108000000D02*
X80500000Y-108000000D01*
X80500000Y-108000000D02*
X80500000Y-98000000D01*
X80500000Y-98000000D02*
X71100000Y-98000000D01*
X80675000Y-109750000D02*
X80675000Y-109250000D01*
X79725000Y-109250000D02*
X79725000Y-109750000D01*
X59540000Y-103540000D02*
X59540000Y-104240000D01*
X58340000Y-104240000D02*
X58340000Y-103540000D01*
X95699340Y-120300080D02*
X95999060Y-120549000D01*
X95999060Y-120549000D02*
X96148920Y-120650600D01*
X96148920Y-120650600D02*
X95300560Y-120650600D01*
X97200480Y-119949560D02*
X95399620Y-119949560D01*
X97200480Y-119949560D02*
X97200480Y-120599800D01*
X97200480Y-124450440D02*
X95399620Y-124450440D01*
X97200480Y-124450440D02*
X97200480Y-123800200D01*
X45960000Y-89735000D02*
X45460000Y-89735000D01*
X45460000Y-90685000D02*
X45960000Y-90685000D01*
X96035000Y-49150000D02*
X95781000Y-49150000D01*
X107465000Y-49150000D02*
X107782500Y-49150000D01*
X109465000Y-143350000D02*
X109719000Y-143350000D01*
X98035000Y-143350000D02*
X97717500Y-143350000D01*
X39265000Y-143350000D02*
X39519000Y-143350000D01*
X27835000Y-143350000D02*
X27517500Y-143350000D01*
X54000000Y-45050000D02*
X53500000Y-45050000D01*
X55000000Y-45050000D02*
X54500000Y-45050000D01*
X56000000Y-45050000D02*
X55500000Y-45050000D01*
X57000000Y-45050000D02*
X56500000Y-45050000D01*
X58000000Y-45050000D02*
X57500000Y-45050000D01*
X59000000Y-45050000D02*
X58500000Y-45050000D01*
X60000000Y-45050000D02*
X59500000Y-45050000D01*
X61000000Y-45050000D02*
X60500000Y-45050000D01*
X62000000Y-45050000D02*
X61500000Y-45050000D01*
X63000000Y-45050000D02*
X62500000Y-45050000D01*
X64000000Y-45050000D02*
X63500000Y-45050000D01*
X65000000Y-45050000D02*
X64500000Y-45050000D01*
X65675000Y-49500000D02*
X65675000Y-47450000D01*
X63450000Y-49500000D02*
X65675000Y-49500000D01*
X56750000Y-49500000D02*
X60250000Y-49500000D01*
X52675000Y-47450000D02*
X52675000Y-49500000D01*
X52675000Y-49500000D02*
X53550000Y-49500000D01*
X65675000Y-45500000D02*
X65675000Y-45550000D01*
X52675000Y-44350000D02*
X52675000Y-45550000D01*
X65675000Y-45050000D02*
X65675000Y-44350000D01*
X65675000Y-44350000D02*
X52725000Y-44350000D01*
X52725000Y-44350000D02*
X52675000Y-44350000D01*
X65675000Y-45050000D02*
X65675000Y-45500000D01*
X85515000Y-90160000D02*
X85515000Y-88160000D01*
X83465000Y-88160000D02*
X83465000Y-90160000D01*
X82550000Y-135950000D02*
X81000000Y-135950000D01*
X82550000Y-137250000D02*
X82550000Y-135950000D01*
X81127000Y-141441000D02*
X81127000Y-147283000D01*
X81127000Y-147283000D02*
X80873000Y-147283000D01*
X80873000Y-147283000D02*
X80873000Y-141441000D01*
X80873000Y-141441000D02*
X81000000Y-141441000D01*
X81000000Y-141441000D02*
X81000000Y-147283000D01*
X81254000Y-138774000D02*
X81254000Y-138393000D01*
X80746000Y-138774000D02*
X80746000Y-138393000D01*
X78714000Y-138774000D02*
X78714000Y-138393000D01*
X78206000Y-138774000D02*
X78206000Y-138393000D01*
X76174000Y-138774000D02*
X76174000Y-138393000D01*
X75666000Y-138774000D02*
X75666000Y-138393000D01*
X68046000Y-138774000D02*
X68046000Y-138393000D01*
X68554000Y-138774000D02*
X68554000Y-138393000D01*
X70586000Y-138774000D02*
X70586000Y-138393000D01*
X71094000Y-138774000D02*
X71094000Y-138393000D01*
X73126000Y-138774000D02*
X73126000Y-138393000D01*
X73634000Y-138774000D02*
X73634000Y-138393000D01*
X82270000Y-138774000D02*
X82270000Y-141314000D01*
X79730000Y-138774000D02*
X79730000Y-141314000D01*
X79730000Y-138774000D02*
X77190000Y-138774000D01*
X77190000Y-138774000D02*
X77190000Y-141314000D01*
X78714000Y-141314000D02*
X78714000Y-147410000D01*
X78714000Y-147410000D02*
X78206000Y-147410000D01*
X78206000Y-147410000D02*
X78206000Y-141314000D01*
X77190000Y-141314000D02*
X79730000Y-141314000D01*
X79730000Y-141314000D02*
X82270000Y-141314000D01*
X80746000Y-147410000D02*
X80746000Y-141314000D01*
X81254000Y-147410000D02*
X80746000Y-147410000D01*
X81254000Y-141314000D02*
X81254000Y-147410000D01*
X79730000Y-138774000D02*
X79730000Y-141314000D01*
X82270000Y-138774000D02*
X79730000Y-138774000D01*
X72110000Y-138774000D02*
X72110000Y-141314000D01*
X72110000Y-138774000D02*
X69570000Y-138774000D01*
X69570000Y-138774000D02*
X69570000Y-141314000D01*
X71094000Y-141314000D02*
X71094000Y-147410000D01*
X71094000Y-147410000D02*
X70586000Y-147410000D01*
X70586000Y-147410000D02*
X70586000Y-141314000D01*
X69570000Y-141314000D02*
X72110000Y-141314000D01*
X67030000Y-141314000D02*
X69570000Y-141314000D01*
X68046000Y-147410000D02*
X68046000Y-141314000D01*
X68554000Y-147410000D02*
X68046000Y-147410000D01*
X68554000Y-141314000D02*
X68554000Y-147410000D01*
X67030000Y-138774000D02*
X67030000Y-141314000D01*
X69570000Y-138774000D02*
X67030000Y-138774000D01*
X69570000Y-138774000D02*
X69570000Y-141314000D01*
X74650000Y-138774000D02*
X74650000Y-141314000D01*
X74650000Y-138774000D02*
X72110000Y-138774000D01*
X72110000Y-138774000D02*
X72110000Y-141314000D01*
X73634000Y-141314000D02*
X73634000Y-147410000D01*
X73634000Y-147410000D02*
X73126000Y-147410000D01*
X73126000Y-147410000D02*
X73126000Y-141314000D01*
X72110000Y-141314000D02*
X74650000Y-141314000D01*
X74650000Y-141314000D02*
X77190000Y-141314000D01*
X75666000Y-147410000D02*
X75666000Y-141314000D01*
X76174000Y-147410000D02*
X75666000Y-147410000D01*
X76174000Y-141314000D02*
X76174000Y-147410000D01*
X74650000Y-138774000D02*
X74650000Y-141314000D01*
X77190000Y-138774000D02*
X74650000Y-138774000D01*
X77190000Y-138774000D02*
X77190000Y-141314000D01*
X60055000Y-131470000D02*
X60055000Y-131970000D01*
X61005000Y-131970000D02*
X61005000Y-131470000D01*
X48965000Y-132020000D02*
X48965000Y-131520000D01*
X48015000Y-131520000D02*
X48015000Y-132020000D01*
X94300000Y-127400000D02*
X94300000Y-126900000D01*
X93350000Y-126900000D02*
X93350000Y-127400000D01*
X96800000Y-126200000D02*
X96800000Y-125700000D01*
X95850000Y-125700000D02*
X95850000Y-126200000D01*
X98100000Y-126200000D02*
X98100000Y-125700000D01*
X97150000Y-125700000D02*
X97150000Y-126200000D01*
X48975000Y-124320000D02*
X48975000Y-123820000D01*
X48025000Y-123820000D02*
X48025000Y-124320000D01*
X57825000Y-125550000D02*
X57825000Y-125050000D01*
X56875000Y-125050000D02*
X56875000Y-125550000D01*
X99650000Y-125900000D02*
X99650000Y-126600000D01*
X98450000Y-126600000D02*
X98450000Y-125900000D01*
X94575000Y-118150000D02*
X94575000Y-117650000D01*
X93625000Y-117650000D02*
X93625000Y-118150000D01*
X50325000Y-118270000D02*
X50325000Y-118770000D01*
X51275000Y-118770000D02*
X51275000Y-118270000D01*
X78212652Y-116190901D02*
X77859099Y-115837348D01*
X77187348Y-116509099D02*
X77540901Y-116862652D01*
X79062652Y-115290901D02*
X78709099Y-114937348D01*
X78037348Y-115609099D02*
X78390901Y-115962652D01*
X71970000Y-116945000D02*
X72470000Y-116945000D01*
X72470000Y-115995000D02*
X71970000Y-115995000D01*
X79950000Y-121050000D02*
X78950000Y-121050000D01*
X78950000Y-122750000D02*
X79950000Y-122750000D01*
X80476777Y-113528249D02*
X80971751Y-114023223D01*
X80123223Y-114871751D02*
X79628249Y-114376777D01*
X72470000Y-118800000D02*
X71770000Y-118800000D01*
X71770000Y-117600000D02*
X72470000Y-117600000D01*
X51275000Y-115620000D02*
X51275000Y-115120000D01*
X50325000Y-115120000D02*
X50325000Y-115620000D01*
X70209099Y-110812652D02*
X70562652Y-110459099D01*
X69890901Y-109787348D02*
X69537348Y-110140901D01*
X71159099Y-111662652D02*
X71512652Y-111309099D01*
X70840901Y-110637348D02*
X70487348Y-110990901D01*
X77112652Y-117240901D02*
X76759099Y-116887348D01*
X76087348Y-117559099D02*
X76440901Y-117912652D01*
X48025000Y-112570000D02*
X48025000Y-113070000D01*
X48975000Y-113070000D02*
X48975000Y-112570000D01*
X54450000Y-107575000D02*
X54950000Y-107575000D01*
X54950000Y-106625000D02*
X54450000Y-106625000D01*
X68070190Y-105651561D02*
X68423743Y-105298008D01*
X67751992Y-104626257D02*
X67398439Y-104979810D01*
X68920190Y-106501561D02*
X69273743Y-106148008D01*
X68601992Y-105476257D02*
X68248439Y-105829810D01*
X81320000Y-60380000D02*
X82320000Y-60380000D01*
X82320000Y-58680000D02*
X81320000Y-58680000D01*
X87960000Y-60600000D02*
X87960000Y-59600000D01*
X86260000Y-59600000D02*
X86260000Y-60600000D01*
X73550000Y-58210000D02*
X73550000Y-58910000D01*
X72350000Y-58910000D02*
X72350000Y-58210000D01*
X91685000Y-60050000D02*
X91685000Y-60550000D01*
X92635000Y-60550000D02*
X92635000Y-60050000D01*
X92810000Y-78805000D02*
X92310000Y-78805000D01*
X92310000Y-79755000D02*
X92810000Y-79755000D01*
X74610000Y-62470000D02*
X73610000Y-62470000D01*
X73610000Y-64170000D02*
X74610000Y-64170000D01*
X78600000Y-68640000D02*
X78600000Y-67640000D01*
X76900000Y-67640000D02*
X76900000Y-68640000D01*
X91770000Y-64540000D02*
X92770000Y-64540000D01*
X92770000Y-62840000D02*
X91770000Y-62840000D01*
X84605000Y-77880000D02*
X84605000Y-79880000D01*
X86655000Y-79880000D02*
X86655000Y-77880000D01*
X91810000Y-66720000D02*
X92810000Y-66720000D01*
X92810000Y-65020000D02*
X91810000Y-65020000D01*
X86945000Y-77890000D02*
X86945000Y-79890000D01*
X88995000Y-79890000D02*
X88995000Y-77890000D01*
X92710000Y-87930000D02*
X92710000Y-87230000D01*
X93910000Y-87230000D02*
X93910000Y-87930000D01*
X46300000Y-81890000D02*
X45600000Y-81890000D01*
X45600000Y-80690000D02*
X46300000Y-80690000D01*
X105170000Y-82380000D02*
X104470000Y-82380000D01*
X104470000Y-81180000D02*
X105170000Y-81180000D01*
X102660000Y-83810000D02*
X102660000Y-84510000D01*
X101460000Y-84510000D02*
X101460000Y-83810000D01*
X42610000Y-80660000D02*
X43310000Y-80660000D01*
X43310000Y-81860000D02*
X42610000Y-81860000D01*
X96230000Y-90425000D02*
X96730000Y-90425000D01*
X96730000Y-89475000D02*
X96230000Y-89475000D01*
X96280000Y-85630000D02*
X95580000Y-85630000D01*
X95580000Y-84430000D02*
X96280000Y-84430000D01*
X70400000Y-65765000D02*
X70900000Y-65765000D01*
X70900000Y-64815000D02*
X70400000Y-64815000D01*
X105840000Y-89070000D02*
X106540000Y-89070000D01*
X106540000Y-90270000D02*
X105840000Y-90270000D01*
X45930000Y-91055000D02*
X45430000Y-91055000D01*
X45430000Y-92005000D02*
X45930000Y-92005000D01*
X106240000Y-90625000D02*
X105740000Y-90625000D01*
X105740000Y-91575000D02*
X106240000Y-91575000D01*
X45940000Y-92355000D02*
X45440000Y-92355000D01*
X45440000Y-93305000D02*
X45940000Y-93305000D01*
X106240000Y-92005000D02*
X105740000Y-92005000D01*
X105740000Y-92955000D02*
X106240000Y-92955000D01*
X106550000Y-105780000D02*
X105550000Y-105780000D01*
X105550000Y-107480000D02*
X106550000Y-107480000D01*
X71990000Y-115445000D02*
X72490000Y-115445000D01*
X72490000Y-114495000D02*
X71990000Y-114495000D01*
X106610000Y-103590000D02*
X105610000Y-103590000D01*
X105610000Y-105290000D02*
X106610000Y-105290000D01*
X60775000Y-103920000D02*
X60775000Y-103420000D01*
X59825000Y-103420000D02*
X59825000Y-103920000D01*
X68150000Y-97685000D02*
X68650000Y-97685000D01*
X68650000Y-96735000D02*
X68150000Y-96735000D01*
X105700000Y-107880000D02*
X106400000Y-107880000D01*
X106400000Y-109080000D02*
X105700000Y-109080000D01*
X91450000Y-107245000D02*
X90950000Y-107245000D01*
X90950000Y-108195000D02*
X91450000Y-108195000D01*
X94335000Y-107190000D02*
X94335000Y-106690000D01*
X93385000Y-106690000D02*
X93385000Y-107190000D01*
X88305000Y-104780000D02*
X88305000Y-105280000D01*
X89255000Y-105280000D02*
X89255000Y-104780000D01*
X63450000Y-103430000D02*
X63450000Y-104130000D01*
X62250000Y-104130000D02*
X62250000Y-103430000D01*
X73840000Y-108450000D02*
X74540000Y-108450000D01*
X74540000Y-109650000D02*
X73840000Y-109650000D01*
X82270000Y-105245000D02*
X81770000Y-105245000D01*
X81770000Y-106195000D02*
X82270000Y-106195000D01*
X82260000Y-103705000D02*
X81760000Y-103705000D01*
X81760000Y-104655000D02*
X82260000Y-104655000D01*
X83020000Y-100050000D02*
X83020000Y-100750000D01*
X81820000Y-100750000D02*
X81820000Y-100050000D01*
X68200000Y-103425000D02*
X68700000Y-103425000D01*
X68700000Y-102475000D02*
X68200000Y-102475000D01*
X81560000Y-96215000D02*
X81060000Y-96215000D01*
X81060000Y-97165000D02*
X81560000Y-97165000D01*
X72160000Y-97570000D02*
X71460000Y-97570000D01*
X71460000Y-96370000D02*
X72160000Y-96370000D01*
X75510000Y-97420000D02*
X74810000Y-97420000D01*
X74810000Y-96220000D02*
X75510000Y-96220000D01*
X82220000Y-102095000D02*
X81720000Y-102095000D01*
X81720000Y-103045000D02*
X82220000Y-103045000D01*
X66570000Y-52725000D02*
X66070000Y-52725000D01*
X66070000Y-53675000D02*
X66570000Y-53675000D01*
X57076257Y-52998008D02*
X57429810Y-53351561D01*
X58101561Y-52679810D02*
X57748008Y-52326257D01*
X68180000Y-59885000D02*
X67680000Y-59885000D01*
X67680000Y-60835000D02*
X68180000Y-60835000D01*
X57926257Y-52148008D02*
X58279810Y-52501561D01*
X58951561Y-51829810D02*
X58598008Y-51476257D01*
X60745000Y-71820000D02*
X60745000Y-71320000D01*
X59795000Y-71320000D02*
X59795000Y-71820000D01*
X71545000Y-58370000D02*
X71545000Y-57870000D01*
X70595000Y-57870000D02*
X70595000Y-58370000D01*
X51895000Y-88600000D02*
X51895000Y-88100000D01*
X50945000Y-88100000D02*
X50945000Y-88600000D01*
X85570000Y-70960000D02*
X84570000Y-70960000D01*
X84570000Y-72660000D02*
X85570000Y-72660000D01*
X88965000Y-85200000D02*
X88965000Y-83200000D01*
X86915000Y-83200000D02*
X86915000Y-85200000D01*
X86665000Y-85200000D02*
X86665000Y-83200000D01*
X84615000Y-83200000D02*
X84615000Y-85200000D01*
X82040000Y-85220000D02*
X83040000Y-85220000D01*
X83040000Y-83520000D02*
X82040000Y-83520000D01*
X82820000Y-89450000D02*
X82820000Y-88450000D01*
X81120000Y-88450000D02*
X81120000Y-89450000D01*
X80630000Y-89450000D02*
X80630000Y-88450000D01*
X78930000Y-88450000D02*
X78930000Y-89450000D01*
X97695000Y-68760000D02*
X97695000Y-69260000D01*
X98645000Y-69260000D02*
X98645000Y-68760000D01*
X88275000Y-68590000D02*
X88275000Y-69090000D01*
X89225000Y-69090000D02*
X89225000Y-68590000D01*
X73900000Y-51250000D02*
X76600000Y-51250000D01*
X73900000Y-49750000D02*
X76600000Y-49750000D01*
X75400000Y-50650000D02*
X75400000Y-50400000D01*
X75400000Y-50400000D02*
X75250000Y-50550000D01*
X75150000Y-50150000D02*
X75150000Y-50850000D01*
X75500000Y-50500000D02*
X75850000Y-50500000D01*
X75150000Y-50500000D02*
X75500000Y-50150000D01*
X75500000Y-50150000D02*
X75500000Y-50850000D01*
X75500000Y-50850000D02*
X75150000Y-50500000D01*
X80900000Y-51250000D02*
X83600000Y-51250000D01*
X80900000Y-49750000D02*
X83600000Y-49750000D01*
X82400000Y-50650000D02*
X82400000Y-50400000D01*
X82400000Y-50400000D02*
X82250000Y-50550000D01*
X82150000Y-50150000D02*
X82150000Y-50850000D01*
X82500000Y-50500000D02*
X82850000Y-50500000D01*
X82150000Y-50500000D02*
X82500000Y-50150000D01*
X82500000Y-50150000D02*
X82500000Y-50850000D01*
X82500000Y-50850000D02*
X82150000Y-50500000D01*
X87900000Y-51250000D02*
X90600000Y-51250000D01*
X87900000Y-49750000D02*
X90600000Y-49750000D01*
X89400000Y-50650000D02*
X89400000Y-50400000D01*
X89400000Y-50400000D02*
X89250000Y-50550000D01*
X89150000Y-50150000D02*
X89150000Y-50850000D01*
X89500000Y-50500000D02*
X89850000Y-50500000D01*
X89150000Y-50500000D02*
X89500000Y-50150000D01*
X89500000Y-50150000D02*
X89500000Y-50850000D01*
X89500000Y-50850000D02*
X89150000Y-50500000D01*
X47860711Y-128640000D02*
G75*
G03X47860711Y-128640000I-70711J0D01*
G01*
X48490000Y-129340000D02*
X48340000Y-129490000D01*
X48340000Y-129490000D02*
X48640000Y-129490000D01*
X48640000Y-129490000D02*
X48490000Y-129340000D01*
X48740000Y-126990000D02*
X49490000Y-126990000D01*
X49490000Y-126990000D02*
X49490000Y-128990000D01*
X49490000Y-128990000D02*
X48740000Y-128990000D01*
X48240000Y-128990000D02*
X47490000Y-128990000D01*
X47490000Y-128990000D02*
X47490000Y-126990000D01*
X47490000Y-126990000D02*
X48240000Y-126990000D01*
X59245356Y-129814594D02*
G75*
G03X59245356Y-129814594I-70711J0D01*
G01*
X60164594Y-129814594D02*
X60164594Y-130026726D01*
X60164594Y-130026726D02*
X60376726Y-129814594D01*
X60376726Y-129814594D02*
X60164594Y-129814594D01*
X58679670Y-127976117D02*
X59210000Y-127445786D01*
X59210000Y-127445786D02*
X60624214Y-128860000D01*
X60624214Y-128860000D02*
X60093883Y-129390330D01*
X59740330Y-129743883D02*
X59210000Y-130274214D01*
X59210000Y-130274214D02*
X57795786Y-128860000D01*
X57795786Y-128860000D02*
X58326117Y-128329670D01*
X49266117Y-109344645D02*
G75*
G03X49266117Y-109344645I-70711J0D01*
G01*
X49195406Y-110334594D02*
X48983274Y-110334594D01*
X48983274Y-110334594D02*
X49195406Y-110546726D01*
X49195406Y-110546726D02*
X49195406Y-110334594D01*
X51033883Y-108849670D02*
X51564214Y-109380000D01*
X51564214Y-109380000D02*
X50150000Y-110794214D01*
X50150000Y-110794214D02*
X49619670Y-110263883D01*
X49266117Y-109910330D02*
X48735786Y-109380000D01*
X48735786Y-109380000D02*
X50150000Y-107965786D01*
X50150000Y-107965786D02*
X50680330Y-108496117D01*
X94675000Y-124700000D02*
X94175000Y-124700000D01*
X94175000Y-125650000D02*
X94675000Y-125650000D01*
X49290000Y-125585000D02*
X48790000Y-125585000D01*
X48790000Y-126535000D02*
X49290000Y-126535000D01*
X48025000Y-120800000D02*
X48025000Y-121300000D01*
X48975000Y-121300000D02*
X48975000Y-120800000D01*
X49300000Y-118595000D02*
X48800000Y-118595000D01*
X48800000Y-119545000D02*
X49300000Y-119545000D01*
X77859099Y-114312652D02*
X78212652Y-113959099D01*
X77540901Y-113287348D02*
X77187348Y-113640901D01*
X75640901Y-114987348D02*
X75287348Y-115340901D01*
X75959099Y-116012652D02*
X76312652Y-115659099D01*
X48800000Y-115295000D02*
X49300000Y-115295000D01*
X49300000Y-114345000D02*
X48800000Y-114345000D01*
X50887348Y-107459099D02*
X51240901Y-107812652D01*
X51912652Y-107140901D02*
X51559099Y-106787348D01*
X79520000Y-66490000D02*
X79520000Y-66290000D01*
X79520000Y-66290000D02*
X83520000Y-66290000D01*
X83520000Y-66290000D02*
X83520000Y-66490000D01*
X79520000Y-70290000D02*
X79520000Y-70090000D01*
X79520000Y-70290000D02*
X83520000Y-70290000D01*
X83520000Y-70290000D02*
X83520000Y-70090000D01*
X93130000Y-61600000D02*
X92930000Y-61600000D01*
X92930000Y-61600000D02*
X92930000Y-57600000D01*
X92930000Y-57600000D02*
X93130000Y-57600000D01*
X96930000Y-61600000D02*
X96730000Y-61600000D01*
X96930000Y-61600000D02*
X96930000Y-57600000D01*
X96930000Y-57600000D02*
X96730000Y-57600000D01*
X90420000Y-80250000D02*
X90420000Y-80050000D01*
X90420000Y-80050000D02*
X94420000Y-80050000D01*
X94420000Y-80050000D02*
X94420000Y-80250000D01*
X90420000Y-84050000D02*
X90420000Y-83850000D01*
X90420000Y-84050000D02*
X94420000Y-84050000D01*
X94420000Y-84050000D02*
X94420000Y-83850000D01*
X92200000Y-99850000D02*
X92200000Y-98850000D01*
X90500000Y-98850000D02*
X90500000Y-99850000D01*
X52000000Y-48030000D02*
X52000000Y-47030000D01*
X50300000Y-47030000D02*
X50300000Y-48030000D01*
X66750000Y-50480000D02*
X65750000Y-50480000D01*
X65750000Y-52180000D02*
X66750000Y-52180000D01*
X109750000Y-76500000D02*
X107750000Y-76500000D01*
X107750000Y-76500000D02*
X107750000Y-78500000D01*
X107750000Y-78500000D02*
X105750000Y-78500000D01*
X105750000Y-78500000D02*
X105750000Y-76500000D01*
X105750000Y-76500000D02*
X105750000Y-64500000D01*
X105750000Y-64500000D02*
X109750000Y-64500000D01*
X109750000Y-64500000D02*
X109750000Y-76500000D01*
X110250000Y-77500000D02*
X110250000Y-79000000D01*
X110250000Y-79000000D02*
X108750000Y-79000000D01*
X105199760Y-59840840D02*
X105199760Y-59889100D01*
X105900800Y-62639820D02*
X105199760Y-62639820D01*
X105199760Y-62639820D02*
X105199760Y-62390900D01*
X105199760Y-59840840D02*
X105199760Y-59640180D01*
X105199760Y-59640180D02*
X105900800Y-59640180D01*
X76250000Y-51975000D02*
X75750000Y-51975000D01*
X75750000Y-53025000D02*
X76250000Y-53025000D01*
X82250000Y-51975000D02*
X81750000Y-51975000D01*
X81750000Y-53025000D02*
X82250000Y-53025000D01*
X90250000Y-51975000D02*
X89750000Y-51975000D01*
X89750000Y-53025000D02*
X90250000Y-53025000D01*
X53275000Y-117300000D02*
X53275000Y-116800000D01*
X52225000Y-116800000D02*
X52225000Y-117300000D01*
X75630000Y-57315000D02*
X75130000Y-57315000D01*
X75130000Y-58365000D02*
X75630000Y-58365000D01*
X78325000Y-61850000D02*
X78325000Y-61350000D01*
X77275000Y-61350000D02*
X77275000Y-61850000D01*
X78250000Y-64825000D02*
X77750000Y-64825000D01*
X77750000Y-65875000D02*
X78250000Y-65875000D01*
X77740000Y-64505000D02*
X78240000Y-64505000D01*
X78240000Y-63455000D02*
X77740000Y-63455000D01*
X88850000Y-63435000D02*
X89350000Y-63435000D01*
X89350000Y-62385000D02*
X88850000Y-62385000D01*
X86740000Y-63455000D02*
X87240000Y-63455000D01*
X87240000Y-62405000D02*
X86740000Y-62405000D01*
X89675000Y-77450000D02*
X89675000Y-77950000D01*
X90725000Y-77950000D02*
X90725000Y-77450000D01*
X89655000Y-75550000D02*
X89655000Y-76050000D01*
X90705000Y-76050000D02*
X90705000Y-75550000D01*
X108815000Y-97790000D02*
X108815000Y-98290000D01*
X109865000Y-98290000D02*
X109865000Y-97790000D01*
X70335000Y-67230000D02*
X70335000Y-66730000D01*
X69285000Y-66730000D02*
X69285000Y-67230000D01*
X70325000Y-69190000D02*
X70325000Y-68690000D01*
X69275000Y-68690000D02*
X69275000Y-69190000D01*
X43025000Y-89360000D02*
X43025000Y-89860000D01*
X44075000Y-89860000D02*
X44075000Y-89360000D01*
X42775000Y-89860000D02*
X42775000Y-89360000D01*
X41725000Y-89360000D02*
X41725000Y-89860000D01*
X103335000Y-89620000D02*
X103335000Y-90120000D01*
X104385000Y-90120000D02*
X104385000Y-89620000D01*
X103065000Y-90110000D02*
X103065000Y-89610000D01*
X102015000Y-89610000D02*
X102015000Y-90110000D01*
X89065000Y-75690000D02*
X89065000Y-75190000D01*
X88015000Y-75190000D02*
X88015000Y-75690000D01*
X79735000Y-59630000D02*
X79735000Y-59130000D01*
X78685000Y-59130000D02*
X78685000Y-59630000D01*
X93345000Y-104350000D02*
X93345000Y-104850000D01*
X94395000Y-104850000D02*
X94395000Y-104350000D01*
X83315000Y-81860000D02*
X83315000Y-82360000D01*
X84365000Y-82360000D02*
X84365000Y-81860000D01*
X82320000Y-97635000D02*
X81820000Y-97635000D01*
X81820000Y-98685000D02*
X82320000Y-98685000D01*
X61150000Y-56625000D02*
X60650000Y-56625000D01*
X60650000Y-57675000D02*
X61150000Y-57675000D01*
X51825000Y-91160000D02*
X51825000Y-90660000D01*
X50775000Y-90660000D02*
X50775000Y-91160000D01*
X53290000Y-76125000D02*
X52790000Y-76125000D01*
X52790000Y-77175000D02*
X53290000Y-77175000D01*
X55890000Y-76105000D02*
X55390000Y-76105000D01*
X55390000Y-77155000D02*
X55890000Y-77155000D01*
X53680000Y-88235000D02*
X54180000Y-88235000D01*
X54180000Y-87185000D02*
X53680000Y-87185000D01*
X55860000Y-88175000D02*
X56360000Y-88175000D01*
X56360000Y-87125000D02*
X55860000Y-87125000D01*
X102450000Y-60615000D02*
X101950000Y-60615000D01*
X101950000Y-61665000D02*
X102450000Y-61665000D01*
X79525000Y-73750000D02*
X79525000Y-73250000D01*
X78475000Y-73250000D02*
X78475000Y-73750000D01*
X81675000Y-73730000D02*
X81675000Y-73230000D01*
X80625000Y-73230000D02*
X80625000Y-73730000D01*
X103260000Y-64595000D02*
X103760000Y-64595000D01*
X103760000Y-63545000D02*
X103260000Y-63545000D01*
X97265000Y-69430000D02*
X97265000Y-68930000D01*
X96215000Y-68930000D02*
X96215000Y-69430000D01*
X94815000Y-68940000D02*
X94815000Y-69440000D01*
X95865000Y-69440000D02*
X95865000Y-68940000D01*
X95815000Y-71540000D02*
X95815000Y-71040000D01*
X94765000Y-71040000D02*
X94765000Y-71540000D01*
X94395000Y-69460000D02*
X94395000Y-68960000D01*
X93345000Y-68960000D02*
X93345000Y-69460000D01*
X94405000Y-71540000D02*
X94405000Y-71040000D01*
X93355000Y-71040000D02*
X93355000Y-71540000D01*
X73600000Y-134245000D02*
X74100000Y-134245000D01*
X74100000Y-133195000D02*
X73600000Y-133195000D01*
X70930000Y-134245000D02*
X71430000Y-134245000D01*
X71430000Y-133195000D02*
X70930000Y-133195000D01*
X91060000Y-127741000D02*
X91250500Y-127931500D01*
X91250500Y-127931500D02*
X90869500Y-127931500D01*
X91060000Y-127741000D02*
X90869500Y-127931500D01*
X91631500Y-126979000D02*
X91568000Y-126979000D01*
X87885000Y-126979000D02*
X88012000Y-126979000D01*
X88012000Y-123296000D02*
X87885000Y-123296000D01*
X87885000Y-123296000D02*
X87885000Y-126979000D01*
X89282000Y-123296000D02*
X89028000Y-123296000D01*
X90552000Y-123296000D02*
X90298000Y-123296000D01*
X91695000Y-123296000D02*
X91568000Y-123296000D01*
X91631500Y-126979000D02*
X91695000Y-126979000D01*
X91695000Y-126979000D02*
X91695000Y-123296000D01*
X59920000Y-119103500D02*
X60110500Y-119294000D01*
X60110500Y-119294000D02*
X59729500Y-119294000D01*
X59920000Y-119103500D02*
X59729500Y-119294000D01*
X60491500Y-118341500D02*
X60428000Y-118341500D01*
X56745000Y-118341500D02*
X56872000Y-118341500D01*
X56872000Y-114658500D02*
X56745000Y-114658500D01*
X56745000Y-114658500D02*
X56745000Y-118341500D01*
X58142000Y-114658500D02*
X57888000Y-114658500D01*
X59412000Y-114658500D02*
X59158000Y-114658500D01*
X60555000Y-114658500D02*
X60428000Y-114658500D01*
X60491500Y-118341500D02*
X60555000Y-118341500D01*
X60555000Y-118341500D02*
X60555000Y-114658500D01*
X49900000Y-117720000D02*
X49900000Y-116420000D01*
X47600000Y-118295000D02*
X47600000Y-116420000D01*
X73800000Y-60700000D02*
G75*
G03X73800000Y-60700000I-100000J0D01*
G01*
X73950000Y-60150000D02*
X73950000Y-60650000D01*
X76850000Y-60150000D02*
X73950000Y-60150000D01*
X76850000Y-60650000D02*
X76850000Y-60150000D01*
X73950000Y-60650000D02*
X76850000Y-60650000D01*
X82855000Y-61775000D02*
X82730000Y-61775000D01*
X82855000Y-65025000D02*
X82640000Y-65025000D01*
X79605000Y-65025000D02*
X79820000Y-65025000D01*
X79605000Y-61775000D02*
X79820000Y-61775000D01*
X82855000Y-61775000D02*
X82855000Y-65025000D01*
X79605000Y-61775000D02*
X79605000Y-65025000D01*
X82730000Y-61775000D02*
X82730000Y-60850000D01*
X91510000Y-59750000D02*
G75*
G03X91510000Y-59750000I-100000J0D01*
G01*
X91160000Y-60400000D02*
X91160000Y-59900000D01*
X88260000Y-60400000D02*
X91160000Y-60400000D01*
X88260000Y-59900000D02*
X88260000Y-60400000D01*
X91160000Y-59900000D02*
X88260000Y-59900000D01*
X93150000Y-78700000D02*
G75*
G03X93150000Y-78700000I-100000J0D01*
G01*
X92400000Y-78450000D02*
X92900000Y-78450000D01*
X92400000Y-75550000D02*
X92400000Y-78450000D01*
X92900000Y-75550000D02*
X92400000Y-75550000D01*
X92900000Y-78450000D02*
X92900000Y-75550000D01*
X95800000Y-85800000D02*
G75*
G03X95800000Y-85800000I-100000J0D01*
G01*
X96250000Y-86050000D02*
X95750000Y-86050000D01*
X96250000Y-88950000D02*
X96250000Y-86050000D01*
X95750000Y-88950000D02*
X96250000Y-88950000D01*
X95750000Y-86050000D02*
X95750000Y-88950000D01*
X45975000Y-83475000D02*
X45850000Y-83475000D01*
X45975000Y-86725000D02*
X45760000Y-86725000D01*
X42725000Y-86725000D02*
X42940000Y-86725000D01*
X42725000Y-83475000D02*
X42940000Y-83475000D01*
X45975000Y-83475000D02*
X45975000Y-86725000D01*
X42725000Y-83475000D02*
X42725000Y-86725000D01*
X45850000Y-83475000D02*
X45850000Y-82550000D01*
X106415000Y-83825000D02*
X106290000Y-83825000D01*
X106415000Y-87075000D02*
X106200000Y-87075000D01*
X103165000Y-87075000D02*
X103380000Y-87075000D01*
X103165000Y-83825000D02*
X103380000Y-83825000D01*
X106415000Y-83825000D02*
X106415000Y-87075000D01*
X103165000Y-83825000D02*
X103165000Y-87075000D01*
X106290000Y-83825000D02*
X106290000Y-82900000D01*
X72200000Y-65800000D02*
G75*
G03X72200000Y-65800000I-100000J0D01*
G01*
X72750000Y-66050000D02*
X72250000Y-66050000D01*
X72750000Y-68950000D02*
X72750000Y-66050000D01*
X72250000Y-68950000D02*
X72750000Y-68950000D01*
X72250000Y-66050000D02*
X72250000Y-68950000D01*
X92520000Y-106950000D02*
X92320000Y-107150000D01*
X92320000Y-107150000D02*
X92720000Y-107150000D01*
X92720000Y-107150000D02*
X92520000Y-106950000D01*
X91270000Y-106700000D02*
X91970000Y-106700000D01*
X90370000Y-104500000D02*
X90370000Y-105700000D01*
X91970000Y-103500000D02*
X91270000Y-103500000D01*
X92870000Y-105700000D02*
X92870000Y-104500000D01*
X65550000Y-67690000D02*
X65850000Y-67990000D01*
X65850000Y-67990000D02*
X65850000Y-67390000D01*
X65850000Y-67390000D02*
X65550000Y-67690000D01*
X64350000Y-68090000D02*
X63850000Y-68590000D01*
X55850000Y-68590000D02*
X55350000Y-68590000D01*
X55350000Y-68590000D02*
X55350000Y-68090000D01*
X63850000Y-59590000D02*
X64350000Y-59590000D01*
X64350000Y-59590000D02*
X64350000Y-60090000D01*
X55850000Y-59590000D02*
X55350000Y-59590000D01*
X55350000Y-59590000D02*
X55350000Y-60090000D01*
X52080000Y-91130000D02*
X51880000Y-90930000D01*
X51880000Y-90930000D02*
X51880000Y-91330000D01*
X51880000Y-91330000D02*
X52080000Y-91130000D01*
X52330000Y-89880000D02*
X52330000Y-90580000D01*
X54530000Y-88980000D02*
X53330000Y-88980000D01*
X55530000Y-90580000D02*
X55530000Y-89880000D01*
X53330000Y-91480000D02*
X54530000Y-91480000D01*
X56300000Y-77400000D02*
X56500000Y-77100000D01*
X56500000Y-77100000D02*
X56100000Y-77100000D01*
X56100000Y-77100000D02*
X56300000Y-77400000D01*
X56600000Y-79000000D02*
G75*
G03X56600000Y-79000000I-300000J0D01*
G01*
X53400000Y-78100000D02*
X52900000Y-78100000D01*
X54600000Y-78100000D02*
X54200000Y-78100000D01*
X55900000Y-78100000D02*
X55400000Y-78100000D01*
X56700000Y-86100000D02*
X57400000Y-86100000D01*
X57400000Y-86100000D02*
X57400000Y-78100000D01*
X57400000Y-78100000D02*
X56700000Y-78100000D01*
X55400000Y-86100000D02*
X55900000Y-86100000D01*
X54100000Y-86100000D02*
X54700000Y-86100000D01*
X53400000Y-86100000D02*
X52900000Y-86100000D01*
X51400000Y-86100000D02*
X52100000Y-86100000D01*
X51400000Y-86100000D02*
X51400000Y-78100000D01*
X51400000Y-78100000D02*
X52100000Y-78100000D01*
X76136000Y-90993000D02*
X74993000Y-92136000D01*
X76136000Y-91374000D02*
X75374000Y-92136000D01*
X58864000Y-92136000D02*
X58864000Y-74864000D01*
X58864000Y-74864000D02*
X76136000Y-74864000D01*
X76136000Y-74864000D02*
X76136000Y-92136000D01*
X76136000Y-92136000D02*
X58864000Y-92136000D01*
X72999100Y-91000620D02*
X72988940Y-91000620D01*
X76126500Y-77412500D02*
X76126500Y-76650500D01*
X76507500Y-77031500D02*
X76126500Y-77412500D01*
X76507500Y-77031500D02*
X76126500Y-76650500D01*
X78000000Y-75000000D02*
X77000000Y-76000000D01*
X77000000Y-76000000D02*
X77000000Y-83000000D01*
X77000000Y-83000000D02*
X83000000Y-83000000D01*
X83000000Y-83000000D02*
X83000000Y-75000000D01*
X83000000Y-75000000D02*
X78000000Y-75000000D01*
X91840000Y-71460000D02*
G75*
G03X91840000Y-71460000I-100000J0D01*
G01*
X91090000Y-71210000D02*
X91590000Y-71210000D01*
X91090000Y-68310000D02*
X91090000Y-71210000D01*
X91590000Y-68310000D02*
X91090000Y-68310000D01*
X91590000Y-71210000D02*
X91590000Y-68310000D01*
X67320000Y-59750000D02*
X67070000Y-60050000D01*
X67070000Y-60050000D02*
X67570000Y-60050000D01*
X67570000Y-60050000D02*
X67320000Y-59750000D01*
X68070000Y-59350000D02*
X68870000Y-59350000D01*
X70070000Y-57800000D02*
X70070000Y-58400000D01*
X68070000Y-56850000D02*
X68870000Y-56850000D01*
X66870000Y-58400000D02*
X66870000Y-57800000D01*
X108285000Y-101680000D02*
X108285000Y-102180000D01*
X109335000Y-102180000D02*
X109335000Y-101680000D01*
X92100000Y-75180000D02*
X93100000Y-75180000D01*
X93100000Y-73480000D02*
X92100000Y-73480000D01*
X51965000Y-143350000D02*
X52219000Y-143350000D01*
X40535000Y-143350000D02*
X40217500Y-143350000D01*
X64715000Y-143350000D02*
X64969000Y-143350000D01*
X53285000Y-143350000D02*
X52967500Y-143350000D01*
X96215000Y-143350000D02*
X96469000Y-143350000D01*
X84785000Y-143350000D02*
X84467500Y-143350000D01*
X109050000Y-120300000D02*
X109050000Y-121000000D01*
X107850000Y-121000000D02*
X107850000Y-120300000D01*
X122265000Y-143350000D02*
X122519000Y-143350000D01*
X110835000Y-143350000D02*
X110517500Y-143350000D01*
X103375000Y-122250000D02*
X103375000Y-121750000D01*
X102425000Y-121750000D02*
X102425000Y-122250000D01*
X41000190Y-129431561D02*
X41353743Y-129078008D01*
X40681992Y-128406257D02*
X40328439Y-128759810D01*
X105875000Y-120700000D02*
X105875000Y-120200000D01*
X104925000Y-120200000D02*
X104925000Y-120700000D01*
X107225000Y-120700000D02*
X107225000Y-120200000D01*
X106275000Y-120200000D02*
X106275000Y-120700000D01*
X42415000Y-121660000D02*
X42415000Y-121160000D01*
X41465000Y-121160000D02*
X41465000Y-121660000D01*
X103375000Y-113000000D02*
X103375000Y-112500000D01*
X102425000Y-112500000D02*
X102425000Y-113000000D01*
X43765000Y-114950000D02*
X43765000Y-115450000D01*
X44715000Y-115450000D02*
X44715000Y-114950000D01*
X41465000Y-109400000D02*
X41465000Y-109900000D01*
X42415000Y-109900000D02*
X42415000Y-109400000D01*
X72800000Y-113950000D02*
X72100000Y-113950000D01*
X72100000Y-112750000D02*
X72800000Y-112750000D01*
X44715000Y-112350000D02*
X44715000Y-111850000D01*
X43765000Y-111850000D02*
X43765000Y-112350000D01*
X69600000Y-121375000D02*
X70100000Y-121375000D01*
X70100000Y-120425000D02*
X69600000Y-120425000D01*
X53300000Y-101525000D02*
X53800000Y-101525000D01*
X53800000Y-100575000D02*
X53300000Y-100575000D01*
X67950000Y-100425000D02*
X68450000Y-100425000D01*
X68450000Y-99475000D02*
X67950000Y-99475000D01*
X67950000Y-101625000D02*
X68450000Y-101625000D01*
X68450000Y-100675000D02*
X67950000Y-100675000D01*
X41300711Y-126080000D02*
G75*
G03X41300711Y-126080000I-70711J0D01*
G01*
X41930000Y-126780000D02*
X41780000Y-126930000D01*
X41780000Y-126930000D02*
X42080000Y-126930000D01*
X42080000Y-126930000D02*
X41930000Y-126780000D01*
X42180000Y-124430000D02*
X42930000Y-124430000D01*
X42930000Y-124430000D02*
X42930000Y-126430000D01*
X42930000Y-126430000D02*
X42180000Y-126430000D01*
X41680000Y-126430000D02*
X40930000Y-126430000D01*
X40930000Y-126430000D02*
X40930000Y-124430000D01*
X40930000Y-124430000D02*
X41680000Y-124430000D01*
X44816117Y-103874645D02*
G75*
G03X44816117Y-103874645I-70711J0D01*
G01*
X44745406Y-104864594D02*
X44533274Y-104864594D01*
X44533274Y-104864594D02*
X44745406Y-105076726D01*
X44745406Y-105076726D02*
X44745406Y-104864594D01*
X46583883Y-103379670D02*
X47114214Y-103910000D01*
X47114214Y-103910000D02*
X45700000Y-105324214D01*
X45700000Y-105324214D02*
X45169670Y-104793883D01*
X44816117Y-104440330D02*
X44285786Y-103910000D01*
X44285786Y-103910000D02*
X45700000Y-102495786D01*
X45700000Y-102495786D02*
X46230330Y-103026117D01*
X103700000Y-119425000D02*
X103200000Y-119425000D01*
X103200000Y-120375000D02*
X103700000Y-120375000D01*
X42720000Y-122795000D02*
X42220000Y-122795000D01*
X42220000Y-123745000D02*
X42720000Y-123745000D01*
X41465000Y-117510000D02*
X41465000Y-118010000D01*
X42415000Y-118010000D02*
X42415000Y-117510000D01*
X42740000Y-115285000D02*
X42240000Y-115285000D01*
X42240000Y-116235000D02*
X42740000Y-116235000D01*
X42240000Y-111875000D02*
X42740000Y-111875000D01*
X42740000Y-110925000D02*
X42240000Y-110925000D01*
X48142652Y-102590901D02*
X47789099Y-102237348D01*
X47117348Y-102909099D02*
X47470901Y-103262652D01*
X46015000Y-113900000D02*
X46015000Y-113400000D01*
X44965000Y-113400000D02*
X44965000Y-113900000D01*
X104549340Y-114650080D02*
X104849060Y-114899000D01*
X104849060Y-114899000D02*
X104998920Y-115000600D01*
X104998920Y-115000600D02*
X104150560Y-115000600D01*
X106050480Y-114299560D02*
X104249620Y-114299560D01*
X106050480Y-114299560D02*
X106050480Y-114949800D01*
X106050480Y-118800440D02*
X104249620Y-118800440D01*
X106050480Y-118800440D02*
X106050480Y-118150200D01*
X43340000Y-114200000D02*
X43340000Y-112900000D01*
X41040000Y-114775000D02*
X41040000Y-112900000D01*
X60800000Y-107065000D02*
X60700000Y-107065000D01*
X60700000Y-107065000D02*
X60700000Y-105815000D01*
X60700000Y-105815000D02*
X60800000Y-105815000D01*
X62600000Y-105815000D02*
X62700000Y-105815000D01*
X62700000Y-105815000D02*
X62700000Y-107065000D01*
X62700000Y-107065000D02*
X62600000Y-107065000D01*
X61450000Y-105815000D02*
X61300000Y-105815000D01*
X62100000Y-105815000D02*
X61950000Y-105815000D01*
X62100000Y-107065000D02*
X61950000Y-107065000D01*
X61450000Y-107065000D02*
X61300000Y-107065000D01*
X61050000Y-107940000D02*
X61200000Y-108140000D01*
X61200000Y-108140000D02*
X60900000Y-108140000D01*
X60900000Y-108140000D02*
X61050000Y-107940000D01*
X61350000Y-106640000D02*
X61350000Y-106290000D01*
X61350000Y-106290000D02*
X61050000Y-106290000D01*
X61050000Y-106290000D02*
X61050000Y-106590000D01*
X61050000Y-106590000D02*
X61250000Y-106590000D01*
X61250000Y-106590000D02*
X61250000Y-106390000D01*
X61250000Y-106390000D02*
X61150000Y-106390000D01*
X61150000Y-106390000D02*
X61150000Y-106540000D01*
X61450000Y-106690000D02*
X61450000Y-106190000D01*
X61450000Y-106190000D02*
X60950000Y-106190000D01*
X60950000Y-106190000D02*
X60950000Y-106690000D01*
X60950000Y-106690000D02*
X61450000Y-106690000D01*
X60130000Y-101005000D02*
X60030000Y-101005000D01*
X60030000Y-101005000D02*
X60030000Y-99755000D01*
X60030000Y-99755000D02*
X60130000Y-99755000D01*
X61930000Y-99755000D02*
X62030000Y-99755000D01*
X62030000Y-99755000D02*
X62030000Y-101005000D01*
X62030000Y-101005000D02*
X61930000Y-101005000D01*
X60780000Y-99755000D02*
X60630000Y-99755000D01*
X61430000Y-99755000D02*
X61280000Y-99755000D01*
X61430000Y-101005000D02*
X61280000Y-101005000D01*
X60780000Y-101005000D02*
X60630000Y-101005000D01*
X60380000Y-101880000D02*
X60530000Y-102080000D01*
X60530000Y-102080000D02*
X60230000Y-102080000D01*
X60230000Y-102080000D02*
X60380000Y-101880000D01*
X60680000Y-100580000D02*
X60680000Y-100230000D01*
X60680000Y-100230000D02*
X60380000Y-100230000D01*
X60380000Y-100230000D02*
X60380000Y-100530000D01*
X60380000Y-100530000D02*
X60580000Y-100530000D01*
X60580000Y-100530000D02*
X60580000Y-100330000D01*
X60580000Y-100330000D02*
X60480000Y-100330000D01*
X60480000Y-100330000D02*
X60480000Y-100480000D01*
X60780000Y-100630000D02*
X60780000Y-100130000D01*
X60780000Y-100130000D02*
X60280000Y-100130000D01*
X60280000Y-100130000D02*
X60280000Y-100630000D01*
X60280000Y-100630000D02*
X60780000Y-100630000D01*
X77375000Y-95700000D02*
X77375000Y-95600000D01*
X77375000Y-95600000D02*
X78625000Y-95600000D01*
X78625000Y-95600000D02*
X78625000Y-95700000D01*
X78625000Y-97500000D02*
X78625000Y-97600000D01*
X78625000Y-97600000D02*
X77375000Y-97600000D01*
X77375000Y-97600000D02*
X77375000Y-97500000D01*
X78625000Y-96350000D02*
X78625000Y-96200000D01*
X78625000Y-97000000D02*
X78625000Y-96850000D01*
X77375000Y-97000000D02*
X77375000Y-96850000D01*
X77375000Y-96350000D02*
X77375000Y-96200000D01*
X76500000Y-95950000D02*
X76300000Y-96100000D01*
X76300000Y-96100000D02*
X76300000Y-95800000D01*
X76300000Y-95800000D02*
X76500000Y-95950000D01*
X77800000Y-96250000D02*
X78150000Y-96250000D01*
X78150000Y-96250000D02*
X78150000Y-95950000D01*
X78150000Y-95950000D02*
X77850000Y-95950000D01*
X77850000Y-95950000D02*
X77850000Y-96150000D01*
X77850000Y-96150000D02*
X78050000Y-96150000D01*
X78050000Y-96150000D02*
X78050000Y-96050000D01*
X78050000Y-96050000D02*
X77900000Y-96050000D01*
X77750000Y-96350000D02*
X78250000Y-96350000D01*
X78250000Y-96350000D02*
X78250000Y-95850000D01*
X78250000Y-95850000D02*
X77750000Y-95850000D01*
X77750000Y-95850000D02*
X77750000Y-96350000D01*
X78605000Y-110470000D02*
X78605000Y-110570000D01*
X78605000Y-110570000D02*
X77355000Y-110570000D01*
X77355000Y-110570000D02*
X77355000Y-110470000D01*
X77355000Y-108670000D02*
X77355000Y-108570000D01*
X77355000Y-108570000D02*
X78605000Y-108570000D01*
X78605000Y-108570000D02*
X78605000Y-108670000D01*
X77355000Y-109820000D02*
X77355000Y-109970000D01*
X77355000Y-109170000D02*
X77355000Y-109320000D01*
X78605000Y-109170000D02*
X78605000Y-109320000D01*
X78605000Y-109820000D02*
X78605000Y-109970000D01*
X79480000Y-110220000D02*
X79680000Y-110070000D01*
X79680000Y-110070000D02*
X79680000Y-110370000D01*
X79680000Y-110370000D02*
X79480000Y-110220000D01*
X78180000Y-109920000D02*
X77830000Y-109920000D01*
X77830000Y-109920000D02*
X77830000Y-110220000D01*
X77830000Y-110220000D02*
X78130000Y-110220000D01*
X78130000Y-110220000D02*
X78130000Y-110020000D01*
X78130000Y-110020000D02*
X77930000Y-110020000D01*
X77930000Y-110020000D02*
X77930000Y-110120000D01*
X77930000Y-110120000D02*
X78080000Y-110120000D01*
X78230000Y-109820000D02*
X77730000Y-109820000D01*
X77730000Y-109820000D02*
X77730000Y-110320000D01*
X77730000Y-110320000D02*
X78230000Y-110320000D01*
X78230000Y-110320000D02*
X78230000Y-109820000D01*
X82750000Y-108400000D02*
X82750000Y-109100000D01*
X81550000Y-109100000D02*
X81550000Y-108400000D01*
X58050000Y-122975000D02*
X57550000Y-122975000D01*
X57550000Y-124025000D02*
X58050000Y-124025000D01*
X57875000Y-122150000D02*
X57875000Y-121650000D01*
X56825000Y-121650000D02*
X56825000Y-122150000D01*
X58050000Y-119775000D02*
X57550000Y-119775000D01*
X57550000Y-120825000D02*
X58050000Y-120825000D01*
X56005000Y-107300000D02*
X56005000Y-107800000D01*
X57055000Y-107800000D02*
X57055000Y-107300000D01*
X57900000Y-107625000D02*
X58400000Y-107625000D01*
X58400000Y-106575000D02*
X57900000Y-106575000D01*
X59225000Y-107300000D02*
X59225000Y-107800000D01*
X60275000Y-107800000D02*
X60275000Y-107300000D01*
X55205000Y-101250000D02*
X55205000Y-101750000D01*
X56255000Y-101750000D02*
X56255000Y-101250000D01*
X57070000Y-101555000D02*
X57570000Y-101555000D01*
X57570000Y-100505000D02*
X57070000Y-100505000D01*
X58385000Y-101230000D02*
X58385000Y-101730000D01*
X59435000Y-101730000D02*
X59435000Y-101230000D01*
X104530000Y-101550000D02*
G75*
G03X104530000Y-101550000I-100000J0D01*
G01*
X104680000Y-101000000D02*
X104680000Y-101500000D01*
X107580000Y-101000000D02*
X104680000Y-101000000D01*
X107580000Y-101500000D02*
X107580000Y-101000000D01*
X104680000Y-101500000D02*
X107580000Y-101500000D01*
X105650000Y-97930000D02*
X106350000Y-97930000D01*
X106350000Y-99130000D02*
X105650000Y-99130000D01*
X37000000Y-71800000D02*
X36350000Y-71800000D01*
X36350000Y-71800000D02*
X36350000Y-73500000D01*
X36350000Y-73500000D02*
X37000000Y-73500000D01*
X38350000Y-70900000D02*
X38550000Y-70900000D01*
X37000000Y-71800000D02*
X37000000Y-70900000D01*
X37000000Y-70900000D02*
X37100000Y-70900000D01*
X37100000Y-74400000D02*
X37000000Y-74400000D01*
X37000000Y-74400000D02*
X37000000Y-73500000D01*
X38550000Y-74400000D02*
X38350000Y-74400000D01*
X39900000Y-74400000D02*
X39800000Y-74400000D01*
X39900000Y-74400000D02*
X39900000Y-70900000D01*
X39900000Y-70900000D02*
X39800000Y-70900000D01*
M02*
